<svg width="39" height="39" viewBox="0 0 39 39" fill="none" xmlns="http://www.w3.org/2000/svg">
<circle cx="19.5" cy="19.5" r="19.5" fill="#FF8D85"/>
<path d="M37.3786 15.6245L20.7779 0.498018C20.0493 -0.16603 18.9505 -0.165958 18.2221 0.497945L1.62134 15.6246C1.03765 16.1564 0.844849 16.9759 1.13001 17.7122C1.41524 18.4485 2.10971 18.9243 2.89936 18.9243H5.55078V34.0799C5.55078 34.6807 6.038 35.168 6.63888 35.168H15.7381C16.339 35.168 16.8262 34.6808 16.8262 34.0799V24.8779H22.174V34.0799C22.174 34.6808 22.6612 35.168 23.2621 35.168H32.3609C32.9618 35.168 33.449 34.6809 33.449 34.0799V18.9243H36.101C36.8905 18.9243 37.5851 18.4485 37.8703 17.7122C38.1551 16.9758 37.9623 16.1564 37.3786 15.6245Z" fill="#FD5E53"/>
<path d="M4.4706 4.08584L4 11.3781L12.1587 3.49162L5.62645 3.07006C5.02681 3.03137 4.5093 3.48612 4.4706 4.08584Z" fill="#FD5E53"/>
</svg>
