<svg width="1304" height="1304" viewBox="0 0 1304 1304" fill="none" xmlns="http://www.w3.org/2000/svg">
<path d="M251.15 1074.37C209.161 1045.29 84.6947 959.157 87.4983 850.73C89.3891 777.901 147.352 741.454 153.35 615.358C154.654 588.495 152.763 573.369 155.306 511.038C160.066 392.374 169.65 375.422 177.474 365.642C208.249 327.239 260.213 340.866 331.346 331.086C453.922 314.199 470.092 250.107 600.622 191.558C659.041 165.347 835.473 86.1944 990.518 161.566C1070 200.229 1154.89 284.859 1166.56 385.202C1176.66 471.983 1121.77 482.024 1124.18 604.926C1124.9 641.112 1137.28 702.269 1161.99 824.65C1181.42 920.82 1183.25 919.776 1182.21 928.97C1163.23 1096.47 576.303 1299.44 251.15 1074.37Z" fill="#F2F2F2"/>
<path opacity="0.47" d="M355.796 1044.89C355.796 1044.89 300.441 1033.42 304.093 980.543C307.744 927.665 274.427 916.516 257.931 889.458C241.436 862.4 235.502 807.697 258.714 791.919C281.925 776.206 324.891 818.977 328.086 848.382C331.281 877.722 341.583 899.043 370.988 916.907C400.393 934.707 420.605 1014.12 414.672 1019.99C408.739 1025.79 355.796 1044.89 355.796 1044.89Z" fill="#21BF73"/>
<path d="M272.731 816.891C271.819 830.518 270.906 844.601 275.013 857.836C278.991 870.616 287.336 881.96 295.226 892.588C303.571 903.868 313.09 914.169 322.088 924.862C331.02 935.49 338.518 946.965 344.843 959.288C351.95 973.11 357.622 987.65 363.034 1002.19C363.49 1003.36 365.381 1002.84 364.925 1001.67C355.797 977.087 345.821 952.376 329.782 931.317C313.025 909.279 291.574 890.11 279.708 864.617C272.731 849.621 273.579 832.995 274.622 816.891C274.818 815.587 272.862 815.587 272.731 816.891Z" fill="#F7F7F7"/>
<path d="M295.29 888.154C292.422 885.546 293.269 878.179 293.53 874.788C293.921 868.92 295.16 863.183 296.334 857.38C298.42 847.013 300.441 836.451 298.159 825.954C297.898 824.715 296.008 825.236 296.268 826.475C299.007 838.994 295.356 851.447 293.074 863.704C292.03 869.246 291.248 874.854 291.444 880.461C291.574 883.33 291.574 887.437 293.921 889.524C294.834 890.371 296.203 889.002 295.29 888.154Z" fill="#F7F7F7"/>
<path d="M258.583 834.169C258.061 840.689 257.67 847.73 261.778 853.207C263.995 856.206 267.059 858.488 269.797 860.966C273.123 863.9 276.383 866.834 279.708 869.768C280.621 870.615 282.055 869.246 281.077 868.398C275.731 863.639 269.993 859.14 265.038 853.989C259.691 848.513 260.017 841.275 260.539 834.169C260.604 832.93 258.648 832.93 258.583 834.169Z" fill="#F7F7F7"/>
<path d="M325.217 924.992C314.133 918.472 301.941 913.582 290.335 908.171C289.227 907.649 288.184 909.345 289.357 909.866C300.963 915.278 313.155 920.168 324.239 926.688C325.348 927.34 326.326 925.644 325.217 924.992Z" fill="#F7F7F7"/>
<path d="M351.819 968.741C351.232 960.852 354.884 953.159 355.927 945.465C356.905 938.032 356.644 930.534 355.405 923.167C355.21 921.928 353.319 922.45 353.514 923.688C354.884 931.773 354.949 939.988 353.58 948.073C352.406 954.984 349.342 961.635 349.863 968.741C349.928 969.98 351.884 969.98 351.819 968.741Z" fill="#F7F7F7"/>
<path opacity="0.47" d="M930.665 1037.14C930.665 1037.14 894.349 949.182 971.48 904.39C1048.61 859.532 1032.64 802.612 1054.74 754.038C1076.84 705.464 1147.46 645.48 1191.27 662.954C1235.08 680.428 1216.05 780.705 1178.16 812.849C1140.28 844.992 1120.33 879.483 1123.27 937.316C1126.27 995.148 1034.72 1098.23 1020.97 1095.56C1007.21 1092.88 930.665 1037.14 930.665 1037.14Z" fill="#21BF73"/>
<path d="M1001.6 1015.75C997.104 997.169 1002.39 976.892 1008.38 959.222C1014.64 940.771 1022.79 922.124 1033.62 905.824C1045.94 887.372 1062.11 871.985 1077.04 855.685C1092.23 839.059 1105.07 820.933 1115.77 801.112C1127.96 778.488 1137.54 754.56 1147.13 730.696C1147.58 729.523 1145.69 729.001 1145.24 730.175C1136.37 752.278 1127.5 774.38 1116.48 795.57C1105.73 816.304 1092.82 835.408 1077.1 852.686C1062.37 868.92 1046.33 884.112 1033.75 902.172C1022.73 918.016 1014.51 936.272 1007.99 954.398C1001.08 973.566 994.822 995.93 999.712 1016.27C999.973 1017.51 1001.86 1016.99 1001.6 1015.75Z" fill="#F7F7F7"/>
<path d="M1105.01 820.216C1091.19 808.806 1091.38 789.507 1094.97 773.468C1098.95 755.668 1104.75 738.129 1110.62 720.916C1111.01 719.743 1109.12 719.221 1108.73 720.395C1105.47 729.979 1102.34 739.629 1099.47 749.278C1096.66 758.667 1093.8 768.121 1092.04 777.771C1089.3 793.158 1090.73 810.892 1103.58 821.52C1104.55 822.368 1105.99 820.998 1105.01 820.216Z" fill="#F7F7F7"/>
<path d="M1118.83 800.46C1132.79 795.962 1145.7 788.92 1157.04 779.596C1158.02 778.814 1156.65 777.445 1155.67 778.227C1144.59 787.355 1131.94 794.201 1118.31 798.57C1117.14 798.961 1117.59 800.852 1118.83 800.46Z" fill="#F7F7F7"/>
<path d="M1048.22 884.829C1043.85 869.181 1043.53 852.816 1047.31 837.038C1047.57 835.799 1045.74 835.277 1045.42 836.516C1041.64 852.62 1041.9 869.376 1046.33 885.35C1046.66 886.524 1048.55 886.002 1048.22 884.829Z" fill="#F7F7F7"/>
<path d="M1072.48 856.989C1089.1 863.574 1107.16 865.269 1124.7 862.074C1125.94 861.879 1125.42 859.988 1124.18 860.184C1106.97 863.313 1089.3 861.553 1073 855.098C1071.82 854.642 1071.3 856.532 1072.48 856.989Z" fill="#F7F7F7"/>
<path d="M1015.82 960.461C1017.38 945.074 1036.88 944.813 1048.35 944.357C1062.43 943.835 1076.45 943.314 1090.54 942.792C1091.77 942.727 1091.77 940.771 1090.54 940.836C1074.04 941.488 1057.48 941.814 1040.98 942.727C1029.7 943.314 1015.23 947.03 1013.86 960.461C1013.73 961.7 1015.69 961.7 1015.82 960.461Z" fill="#F7F7F7"/>
<path d="M650.826 1125.87C921.254 1125.87 1140.48 1096.24 1140.48 1059.7C1140.48 1023.15 921.254 993.518 650.826 993.518C380.399 993.518 161.174 1023.15 161.174 1059.7C161.174 1096.24 380.399 1125.87 650.826 1125.87Z" fill="#0E538C"/>
<path d="M1145.41 340.495L551.314 201.048L376.558 945.577L970.658 1085.02L1145.41 340.495Z" fill="#0B4870"/>
<path d="M1071.89 289.505L464.607 229.077L388.878 990.125L996.16 1050.55L1071.89 289.505Z" fill="#21BF73"/>
<path d="M1021.63 283.513L404.652 246.886L362.113 963.446L979.096 1000.07L1021.63 283.513Z" fill="white"/>
<path d="M526.218 301.132L466.993 297.616L463.478 356.841L522.702 360.357L526.218 301.132Z" fill="#CCE9FF"/>
<path d="M519.438 415.03L460.212 411.514L456.696 470.74L515.922 474.256L519.438 415.03Z" fill="#CCE9FF"/>
<path d="M512.853 526.323L453.628 522.807L450.112 582.032L509.337 585.548L512.853 526.323Z" fill="#CCE9FF"/>
<path d="M506.268 636.962L447.043 633.446L443.527 692.671L502.752 696.187L506.268 636.962Z" fill="#CCE9FF"/>
<path d="M499.161 756.075L439.935 752.559L436.42 811.784L495.645 815.3L499.161 756.075Z" fill="#CCE9FF"/>
<path d="M922.799 331.231L564.194 309.943L563.305 324.912L921.91 346.2L922.799 331.231Z" fill="#CCE9FF"/>
<path d="M845.41 359.309L562.301 342.503L561.412 357.472L844.522 374.279L845.41 359.309Z" fill="#CCE9FF"/>
<path d="M884.233 442.557L557.518 423.162L556.629 438.131L883.344 457.526L884.233 442.557Z" fill="#CCE9FF"/>
<path d="M906.378 476.522L555.583 455.697L554.694 470.666L905.49 491.491L906.378 476.522Z" fill="#CCE9FF"/>
<path d="M909.367 557.727L550.763 536.439L549.874 551.408L908.479 572.696L909.367 557.727Z" fill="#CCE9FF"/>
<path d="M867.082 587.891L548.828 568.998L547.823 585.919L866.077 604.813L867.082 587.891Z" fill="#CCE9FF"/>
<path d="M846.7 667.62L544.065 649.654L543.177 664.623L845.811 682.589L846.7 667.62Z" fill="#CCE9FF"/>
<path d="M900.697 703.508L542.092 682.219L541.203 697.188L899.809 718.477L900.697 703.508Z" fill="#CCE9FF"/>
<path d="M895.937 784.223L537.332 762.935L536.443 777.904L895.048 799.193L895.937 784.223Z" fill="#CCE9FF"/>
<path d="M804.806 811.435L535.365 795.44L534.476 810.409L803.918 826.404L804.806 811.435Z" fill="#CCE9FF"/>
<path d="M368.901 558.568C368.901 558.568 421.322 536.4 431.363 530.924C441.469 525.447 451.053 423.539 451.314 410.043L469.57 414.607C469.57 414.607 468.462 532.684 456.074 547.093C443.686 561.502 380.377 595.146 380.377 595.146L368.901 558.568Z" fill="#FCD2B1"/>
<path d="M443.947 402.023C443.947 402.023 445.772 411.673 451.836 412.52C457.899 413.368 451.836 402.023 451.836 402.023H443.947Z" fill="#FCD2B1"/>
<path d="M439.122 384.876C440.817 385.136 496.433 412.52 496.433 412.52L491.543 424.061L434.232 397.59L439.122 384.876Z" fill="#0B4870"/>
<path d="M451.966 412.586C451.966 412.586 446.62 393.808 451.771 391.787C456.922 389.766 471.331 390.352 473.939 396.677C476.547 403.001 471.918 410.499 469.31 414.803C466.767 419.171 453.14 417.476 451.966 412.586Z" fill="#FCD2B1"/>
<path d="M491.543 424.061H504.191L496.433 412.521L491.543 424.061Z" fill="#21BF73"/>
<path d="M493.042 348.82L467.093 322.74L478.633 311.2L492.455 325.152L532.032 281.338L544.094 292.226L493.042 348.82Z" fill="#21BF73"/>
<path d="M493.042 461.616L467.093 435.536L478.633 423.996L492.455 437.948L532.032 394.134L544.094 405.022L493.042 461.616Z" fill="#21BF73"/>
<path d="M475.438 580.28L449.489 554.2L461.029 542.66L474.852 556.612L514.428 512.798L526.49 523.686L475.438 580.28Z" fill="#21BF73"/>
<path d="M475.438 683.948L449.489 657.868L461.029 646.327L474.852 660.28L514.428 616.466L526.49 627.354L475.438 683.948Z" fill="#21BF73"/>
<path d="M468.918 811.74L442.969 785.66L454.509 774.12L468.332 788.072L507.908 744.258L519.97 755.146L468.918 811.74Z" fill="#21BF73"/>
<path d="M400.458 1083.49C385.332 1064.32 350.515 1062.56 344.973 1062.83C340.474 1064.39 336.106 1065.82 331.998 1067.19C327.108 1069.21 322.153 1071.56 316.937 1072.8C317.198 1078.41 317.328 1081.67 317.328 1081.67L400.458 1083.49Z" fill="#0B4870"/>
<path d="M453.988 987.128C446.164 988.823 438.144 989.214 430.255 989.149C430.19 997.038 430.059 1004.21 429.929 1010.08C436.579 1009.17 443.947 1009.1 450.402 1006.95C450.793 1004.93 452.227 997.495 453.988 987.128Z" fill="#FCD2B1"/>
<path d="M257.67 596.645C257.67 596.645 219.854 695.619 220.506 717.787C221.158 739.955 298.746 812.979 298.746 812.979L301.354 790.159C301.354 790.159 243.978 735.391 251.15 706.051C258.322 676.711 288.119 611.837 288.119 611.837L257.67 596.645Z" fill="#FCD2B1"/>
<path d="M497.607 1035.9C482.154 1010.6 450.271 1007.47 450.271 1007.47C450.271 1007.47 450.337 1007.27 450.402 1006.95C443.882 1009.04 436.514 1009.17 429.929 1010.08C429.668 1019.99 429.473 1026.25 429.473 1026.25L497.607 1035.9Z" fill="#0B4870"/>
<path d="M249.39 613.206C249.39 613.206 260.018 568.022 284.207 570.891C308.396 573.76 277.883 636.808 277.883 636.808L249.39 613.206Z" fill="#21BF73"/>
<path d="M345.038 1062.83C343.278 1062.89 342.3 1063.22 342.3 1063.22C342.3 1063.22 342.43 1056.89 342.626 1046.92C335.454 1052.52 325.739 1053.7 316.155 1053.83C316.481 1061.52 316.807 1068.04 317.002 1072.87C322.218 1071.63 327.174 1069.28 332.064 1067.26C336.171 1065.82 340.54 1064.39 345.038 1062.83Z" fill="#FCD2B1"/>
<path d="M346.734 890.958C344.126 852.294 346.799 696.792 346.799 696.792H278.991C278.991 696.792 280.034 725.546 283.751 760.102C288.836 807.046 297.312 864.617 299.464 875.571C302.137 889.328 307.288 998.538 309.896 1058.13C323.197 1057.87 336.563 1056.31 346.473 1048.55C347.321 1007.08 348.69 920.037 346.734 890.958Z" fill="#0B4870"/>
<path d="M460.703 985.824C467.419 945.335 477.133 872.311 465.332 842.449C448.641 800.069 368.445 699.792 368.445 699.792L321.11 699.726C308.331 697.836 308.917 729.588 337.931 771.251C357.491 799.352 402.74 834.69 417.215 856.858C427.06 871.92 428.299 939.923 427.907 988.628C438.861 988.693 449.945 988.171 460.703 985.824Z" fill="#0B4870"/>
<path d="M284.207 537.77L291.705 574.347L321.371 573.499L313.873 537.77H284.207Z" fill="#FCD2B1"/>
<path d="M321.11 496.889C321.11 496.889 340.67 545.528 321.11 556.221C301.55 566.849 281.403 550.744 280.816 539.53C280.23 528.316 269.276 504.387 269.276 504.387L321.11 496.889Z" fill="#FCD2B1"/>
<path d="M292.292 528.316H297.768L290.27 505.3C290.27 505.3 324.5 503.018 325.674 490.304C326.848 477.655 304.419 481.958 287.402 481.958C265.82 481.958 261.778 496.954 261.778 496.954C261.778 496.954 259.366 496.368 261.778 510.19C264.973 528.316 284.207 556.286 294.313 556.286C299.464 556.286 288.575 542.464 288.575 542.464L287.402 533.271C287.402 533.271 279.904 522.643 282.512 520.883C285.12 519.057 292.292 528.316 292.292 528.316Z" fill="#0B4870"/>
<path d="M284.207 570.891C284.207 570.891 338.193 557.981 348.299 570.369C358.405 582.757 368.511 699.465 368.511 699.465L276.579 741.193C276.579 741.193 260.93 606.034 284.207 570.891Z" fill="#21BF73"/>
<path d="M369.814 556.678C369.814 556.678 326.782 563.719 331.02 579.628C335.193 595.537 361.403 612.75 391.917 602.774L369.814 556.678Z" fill="#21BF73"/>
<g clip-path="url(#clip0)">
<path d="M850.64 884.165C860.306 903.618 863.938 921.46 863.938 921.46C863.938 921.46 851.895 907.761 842.226 888.311C832.557 868.86 828.928 851.03 828.928 851.03C828.928 851.03 840.971 864.712 850.64 884.165Z" fill="url(#paint0_linear)"/>
<path d="M828.928 851.03C828.928 851.03 840.971 864.725 850.64 884.179C860.309 903.632 863.938 921.473 863.938 921.473L828.928 851.03Z" fill="url(#paint1_linear)"/>
<path d="M848.816 906.393C862.08 923.618 869.109 940.424 869.109 940.424C869.109 940.424 854.646 929.304 841.368 912.081C828.09 894.859 821.075 878.054 821.075 878.054C821.075 878.054 835.552 889.173 848.816 906.393Z" fill="url(#paint2_linear)"/>
<path d="M821.075 878.054C821.075 878.054 835.552 889.173 848.816 906.393C862.08 923.613 869.109 940.424 869.109 940.424L821.075 878.054Z" fill="url(#paint3_linear)"/>
<path d="M847.278 922.488C863.393 937.104 873.298 952.406 873.298 952.406C873.298 952.406 857.072 944.011 840.957 929.398C824.842 914.785 814.948 899.483 814.948 899.483C814.948 899.483 831.16 907.874 847.278 922.488Z" fill="url(#paint4_linear)"/>
<path d="M814.948 899.483C814.948 899.483 831.171 907.874 847.289 922.488C863.407 937.101 873.309 952.406 873.309 952.406L814.948 899.483Z" fill="url(#paint5_linear)"/>
<path d="M848.061 938.187C865.828 950.769 877.504 964.777 877.504 964.777C877.504 964.777 860.384 958.384 842.62 945.805C824.856 933.226 813.194 919.215 813.194 919.215C813.194 919.215 830.3 925.608 848.061 938.187Z" fill="url(#paint6_linear)"/>
<path d="M813.179 919.215C813.179 919.215 830.3 925.608 848.061 938.187C865.822 950.766 877.504 964.777 877.504 964.777L813.179 919.215Z" fill="url(#paint7_linear)"/>
<path d="M846.337 954.912C866.658 962.768 881.432 973.492 881.432 973.492C881.432 973.492 863.26 971.48 842.939 963.625C822.618 955.769 807.844 945.048 807.844 945.048C807.844 945.048 826.016 947.06 846.337 954.912Z" fill="url(#paint8_linear)"/>
<path d="M807.844 945.048C807.844 945.048 826.016 947.06 846.337 954.912C866.658 962.765 881.432 973.492 881.432 973.492L807.844 945.048Z" fill="url(#paint9_linear)"/>
<path d="M873.332 884.198C871.41 905.818 865.175 922.93 865.175 922.93C865.175 922.93 862.061 904.992 863.982 883.374C865.903 861.757 872.135 844.625 872.135 844.625C872.135 844.625 875.255 862.564 873.332 884.198Z" fill="url(#paint10_linear)"/>
<path d="M872.135 844.625C872.135 844.625 875.253 862.564 873.329 884.184C871.405 905.804 865.173 922.916 865.173 922.916L872.135 844.625Z" fill="url(#paint11_linear)"/>
<path d="M883.339 901.813C877.584 922.748 868.393 938.483 868.393 938.483C868.393 938.483 868.529 920.279 874.284 899.347C880.039 878.416 889.233 862.677 889.233 862.677C889.233 862.677 889.094 880.881 883.339 901.813Z" fill="url(#paint12_linear)"/>
<path d="M889.233 862.677C889.233 862.677 889.094 880.881 883.339 901.813C877.584 922.745 868.393 938.483 868.393 938.483L889.233 862.677Z" fill="url(#paint13_linear)"/>
<path d="M890.18 915.984C882.654 936.355 872.135 951.253 872.135 951.253C872.135 951.253 873.831 933.129 881.357 912.758C888.883 892.388 899.402 877.49 899.402 877.49C899.402 877.49 897.714 895.622 890.18 915.984Z" fill="url(#paint14_linear)"/>
<path d="M899.41 877.495C899.41 877.495 897.714 895.622 890.18 915.984C882.645 936.347 872.135 951.253 872.135 951.253L899.41 877.495Z" fill="url(#paint15_linear)"/>
<path d="M898.977 931.313C889.478 950.849 877.554 964.65 877.554 964.65C877.554 964.65 881.019 946.778 890.527 927.242C900.035 907.706 911.95 893.908 911.95 893.908C911.95 893.908 908.474 911.78 898.977 931.313Z" fill="url(#paint16_linear)"/>
<path d="M911.95 893.908C911.95 893.908 908.474 911.78 898.977 931.313C889.48 950.847 877.554 964.65 877.554 964.65L911.95 893.908Z" fill="url(#paint17_linear)"/>
<path d="M854.904 980.739C876.022 986.151 891.959 995.062 891.959 995.062C891.959 995.062 873.676 995.201 852.564 989.791C831.452 984.382 815.503 975.466 815.503 975.466C815.503 975.466 833.795 975.327 854.904 980.739Z" fill="url(#paint18_linear)"/>
<path d="M815.503 975.466C815.503 975.466 833.787 975.327 854.896 980.739C876.005 986.151 891.959 995.062 891.959 995.062L815.503 975.466Z" fill="url(#paint19_linear)"/>
<path d="M919.473 966.502C906.348 983.83 891.959 995.062 891.959 995.062C891.959 995.062 898.852 978.202 911.98 960.874C925.108 943.547 939.494 932.317 939.494 932.317C939.494 932.317 932.601 949.177 919.473 966.502Z" fill="url(#paint20_linear)"/>
<path d="M939.494 932.317C939.494 932.317 932.601 949.177 919.473 966.502C906.345 983.827 891.959 995.062 891.959 995.062L939.494 932.317Z" fill="url(#paint21_linear)"/>
<path d="M905.726 942.013C894.569 960.65 881.482 973.365 881.482 973.365C881.482 973.365 886.507 955.863 897.675 937.223C908.843 918.582 921.93 905.87 921.93 905.87C921.93 905.87 916.905 923.375 905.726 942.013Z" fill="url(#paint22_linear)"/>
<path d="M921.93 905.87C921.93 905.87 916.905 923.375 905.726 942.013C894.547 960.65 881.482 973.365 881.482 973.365L921.93 905.87Z" fill="url(#paint23_linear)"/>
<path d="M852.533 966.419C872.854 974.274 887.629 984.999 887.629 984.999C887.629 984.999 869.459 982.987 849.138 975.131C828.817 967.276 814.04 956.554 814.04 956.554C814.04 956.554 832.213 958.566 852.533 966.419Z" fill="url(#paint24_linear)"/>
<path d="M814.04 956.554C814.04 956.554 832.213 958.566 852.533 966.419C872.854 974.272 887.629 984.999 887.629 984.999L814.04 956.554Z" fill="url(#paint25_linear)"/>
<path d="M911.933 953.519C900.765 972.157 887.681 984.874 887.681 984.874C887.681 984.874 892.703 967.37 903.874 948.732C915.045 930.094 928.126 917.366 928.126 917.366C928.126 917.366 923.104 934.882 911.933 953.519Z" fill="url(#paint26_linear)"/>
<path d="M928.126 917.366C928.126 917.366 923.104 934.882 911.933 953.519C900.762 972.157 887.681 984.874 887.681 984.874L928.126 917.366Z" fill="url(#paint27_linear)"/>
<path d="M857.769 886.815C857.769 886.815 860.892 905.431 864.526 921.628C871.339 951.991 886.937 1000.19 920.325 1026.43" stroke="#114A6F" stroke-width="2.53" stroke-miterlimit="10"/>
<path d="M858.533 852.636C861.2 874.178 858.702 892.211 858.702 892.211C858.702 892.211 851.87 875.32 849.213 853.794C846.557 832.268 849.041 814.219 849.041 814.219C849.041 814.219 855.862 831.096 858.533 852.636Z" fill="url(#paint28_linear)"/>
<path d="M849.041 814.205C849.041 814.205 855.862 831.096 858.53 852.625C861.198 874.154 858.699 892.214 858.699 892.214L849.041 814.205Z" fill="url(#paint29_linear)"/>
<path d="M1030.61 1005.85C1088.52 964.971 1132.25 951.817 1132.25 951.817C1105.33 962.091 1109.9 990.306 1089.33 990.748C1094.23 994.184 1102.93 987.804 1102.93 987.804C1070.73 1018.37 1042.6 1014.18 1038.72 1013.42C1063.09 1018.82 1079.67 1008.06 1079.67 1008.06C1015.19 1066.07 970.258 1055.14 963.107 1052.87L962.147 1051.8C962.147 1051.72 962.163 1051.65 962.169 1051.57C970.575 1046.41 994.283 1031.52 1030.61 1005.85Z" fill="url(#paint30_linear)"/>
<path d="M1011.25 986.549C1005.79 990.275 998.258 1004.53 998.258 1004.53C1023.2 972.696 1075.69 957.859 1075.69 957.859C1068 961.029 1059.48 971.621 1059.48 971.621C1095.59 943.185 1132.25 951.817 1132.25 951.817C1132.25 951.817 1088.52 964.971 1030.61 1005.85C994.283 1031.52 970.575 1046.41 962.169 1051.57C964.856 1009.68 1011.25 986.549 1011.25 986.549Z" fill="url(#paint31_linear)"/>
<path d="M974.664 949.08C952 993.788 947.486 952.9 914.887 1032.15" stroke="#FDF9E7" stroke-width="3.96" stroke-miterlimit="10"/>
<path d="M921.841 887.808C917.709 891.994 914.464 896.963 912.295 902.421C910.127 907.879 909.081 913.714 909.218 919.581C909.355 925.449 910.673 931.23 913.094 936.581C915.515 941.932 918.99 946.745 923.312 950.736L929.497 956.449C933.834 960.456 939.546 962.659 945.462 962.608C951.378 962.556 957.05 960.254 961.317 956.173C962.514 955.027 964.07 954.324 965.725 954.181C967.379 954.037 969.034 954.463 970.412 955.386C971.79 956.309 972.809 957.674 973.3 959.254C973.791 960.833 973.724 962.533 973.109 964.07C970.922 969.541 970.919 975.638 973.101 981.112C975.283 986.586 979.484 991.022 984.844 993.512L990.565 996.168C1013.8 1006.95 1041.34 995.809 1050.41 971.942C1053.46 963.914 1055.98 955.696 1057.96 947.342C1048.76 948.793 1039.62 948.945 1030.35 948.309C1030.12 948.29 1029.9 948.185 1029.74 948.014C1029.58 947.844 1029.49 947.62 1029.49 947.386C1029.48 947.153 1029.57 946.927 1029.73 946.753C1029.88 946.578 1030.1 946.468 1030.33 946.444C1040.28 945.462 1050.29 942.986 1059.61 939.683C1059.84 938.547 1060.06 937.413 1060.26 936.275L1063.32 919.019C1063.91 915.644 1064.23 904.093 1064.31 900.724C1062.14 902.073 1052.09 908.809 1050.15 909.646C1042.84 912.786 1036.23 919.663 1030.54 911.65C1029.67 910.437 1028.93 908.654 1029.66 907.161C1030.1 906.232 1030.76 905.419 1031.58 904.787L1031.51 904.743C1031.64 904.674 1031.77 904.613 1031.91 904.547C1032.45 904.182 1033.04 903.887 1033.66 903.668C1033.68 903.614 1033.72 903.567 1033.76 903.532C1033.81 903.496 1033.86 903.474 1033.92 903.466C1034.22 903.424 1034.52 903.375 1034.82 903.328C1035.31 903.215 1035.81 903.131 1036.32 903.076L1036.78 902.99H1036.81C1042.92 901.852 1048.99 899.851 1054.08 896.307C1056.96 894.27 1059.54 891.852 1061.76 889.121C1061.03 886.543 1060.14 884.012 1059.1 881.542C1056.5 875.359 1047.9 873.99 1042.74 869.684C1038.85 866.439 1040.53 858.224 1040.24 852.008C1033.76 853.114 1027.78 852.68 1022.63 849.775C1016.2 846.148 1009.05 843.89 1001.66 843.749C998.315 843.684 994.969 843.869 991.651 844.302C987.423 852.379 984.311 860.914 986.174 870.052C986.246 870.405 985.738 870.483 985.618 870.157C983.551 863.632 983.358 856.662 985.063 850.035C985.478 848.38 985.99 846.751 986.596 845.156C977.895 846.968 969.642 850.479 962.313 855.485L959.396 857.481C960.684 860.881 962.008 864.267 963.482 867.592C964.222 869.281 965.019 870.956 965.872 872.614C969.52 877.608 973.645 882.302 978.72 885.69C982.831 888.432 978.545 894.79 974.428 892.048C965.844 886.321 959.781 877.542 954.227 869.046C953.019 867.199 951.861 865.317 950.781 863.39C945.951 866.735 941.277 870.284 936.759 874.037C937.13 875.355 937.505 876.671 937.887 877.987C939.341 883.054 941.815 887.819 944.793 892.214C945.832 893.745 943.788 895.503 942.414 894.256C938.217 890.456 934.38 886.265 930.724 881.915C930.297 881.409 929.891 880.898 929.486 880.384C927.112 882.567 924.791 884.807 922.524 887.103L921.841 887.808ZM1000.95 951.604C1006.31 952.049 1011.06 955.322 1013.47 958.71C1013.69 959.03 1013.87 959.382 1013.98 959.755C1015.92 962.104 1016.1 964.73 1011.95 967.176C1007.7 969.683 1002.53 967.436 999.962 966.143C996.589 964.443 992.331 961.809 992.275 957.867C992.228 954.177 996.936 951.272 1000.95 951.604ZM1029.24 886.08C1032.16 883.275 1035.77 882.401 1038.23 882.918C1038.46 882.97 1038.68 883.069 1038.87 883.211C1040.71 883.421 1041.75 884.787 1040.52 888.51C1039.24 892.33 1035.8 894.021 1034 894.762C1031.66 895.732 1028.52 896.697 1027.06 894.516C1025.7 892.49 1027.07 888.181 1029.24 886.08ZM994.799 876.365C993.505 873.36 993.111 870.325 993.133 867.078C993.133 866.879 993.411 866.89 993.458 867.055C994.385 870.072 995.629 872.983 997.17 875.74C998.402 877.998 1000.78 879.98 1001.28 882.542C1001.31 882.688 1001.3 882.838 1001.25 882.978C1001.2 883.118 1001.11 883.243 1001 883.341C1000.89 883.438 1000.75 883.505 1000.61 883.535C1000.46 883.564 1000.31 883.556 1000.17 883.51C997.336 882.509 995.901 878.919 994.799 876.365ZM1007.29 926.117C1007.16 925.885 1007.1 925.624 1007.1 925.359C1007.11 925.095 1007.18 924.836 1007.31 924.607C1007.45 924.379 1007.64 924.189 1007.87 924.056C1008.1 923.923 1008.36 923.851 1008.62 923.848C1013.33 923.875 1017.64 927.341 1022.05 928.734C1027.41 930.423 1033.08 931.75 1038.67 932.275C1038.98 932.306 1039.09 932.787 1038.74 932.856C1033.01 933.978 1027.5 934.323 1021.75 933.079C1016.86 932.032 1010.02 930.744 1007.29 926.128V926.117ZM943.736 926.797C948.624 924.475 954.443 925.545 958.338 929.036C960.878 931.311 960.209 936.377 957.633 938.303C957.252 938.605 956.852 938.882 956.436 939.133C955.726 939.655 955.537 939.763 955.881 939.459C956.173 939.199 956.037 939.274 955.467 939.691L954.168 940.537C952.958 941.19 951.662 941.671 950.318 941.966C947.603 942.577 944.765 942.345 942.187 941.3C938.675 939.865 936.818 936.123 938.578 932.571C938.721 932.292 938.886 932.025 939.072 931.772C940.01 929.602 941.89 927.684 943.736 926.808V926.797Z" fill="url(#paint32_linear)"/>
<path d="M921.841 887.808C917.709 891.994 914.464 896.963 912.295 902.421C910.127 907.879 909.081 913.714 909.218 919.581C909.355 925.449 910.673 931.229 913.094 936.581C915.515 941.932 918.99 946.745 923.312 950.736L929.497 956.449C933.834 960.456 939.546 962.659 945.462 962.608C951.378 962.556 957.051 960.254 961.317 956.173C962.513 955.026 964.067 954.321 965.721 954.176C967.375 954.031 969.029 954.453 970.408 955.374L970.428 955.391L1040.25 852.016C1040.24 852.006 1040.23 851.995 1040.23 851.983C1033.75 853.089 1027.78 852.647 1022.64 849.744C1016.2 846.118 1009.05 843.86 1001.65 843.719C998.313 843.655 994.972 843.84 991.659 844.272C987.431 852.348 984.319 860.883 986.182 870.021C986.254 870.375 985.746 870.452 985.627 870.126C983.559 863.602 983.367 856.632 985.072 850.004C985.487 848.35 985.998 846.721 986.604 845.126C977.904 846.938 969.651 850.448 962.322 855.455L959.404 857.451C960.692 860.85 962.016 864.236 963.49 867.561C964.231 869.251 965.027 870.925 965.881 872.584C969.528 877.578 973.654 882.271 978.728 885.66C982.84 888.402 978.553 894.759 974.436 892.017C965.853 886.29 959.79 877.512 954.235 869.015C953.027 867.169 951.87 865.287 950.79 863.36C945.959 866.704 941.285 870.253 936.768 874.007C937.138 875.324 937.514 876.641 937.895 877.957C939.341 883.054 941.815 887.819 944.793 892.214C945.832 893.745 943.788 895.503 942.414 894.256C938.217 890.456 934.38 886.265 930.724 881.915C930.297 881.409 929.891 880.898 929.486 880.384C927.112 882.567 924.791 884.807 922.524 887.103L921.841 887.808ZM994.799 876.365C993.505 873.36 993.111 870.325 993.133 867.078C993.133 866.879 993.411 866.89 993.458 867.055C994.385 870.072 995.63 872.983 997.17 875.74C998.402 877.998 1000.78 879.98 1001.28 882.542C1001.31 882.688 1001.3 882.838 1001.25 882.978C1001.2 883.118 1001.11 883.243 1001 883.341C1000.89 883.438 1000.75 883.505 1000.61 883.535C1000.46 883.564 1000.31 883.556 1000.17 883.51C997.336 882.509 995.901 878.919 994.799 876.365ZM943.736 926.808C948.624 924.486 954.443 925.556 958.338 929.047C960.878 931.322 960.209 936.388 957.633 938.314C957.252 938.616 956.852 938.893 956.436 939.144C955.726 939.666 955.537 939.774 955.881 939.47C956.173 939.21 956.037 939.285 955.467 939.702L954.168 940.548C952.958 941.197 951.662 941.675 950.318 941.966C947.603 942.577 944.765 942.345 942.187 941.3C938.675 939.865 936.818 936.123 938.578 932.571C938.721 932.292 938.886 932.025 939.072 931.772C940.01 929.602 941.89 927.684 943.736 926.808Z" fill="#21BF73"/>
<path d="M871.199 1055.35C846.215 1012.23 861.081 957.137 904.421 932.281C947.761 907.424 1003.17 922.225 1028.16 965.327C1053.16 1008.43 1038.27 1063.53 994.935 1088.39C951.6 1113.24 896.19 1098.45 871.199 1055.35Z" fill="#114A6F"/>
<path d="M1028.25 998.681C1031.11 1006.45 1028.79 1028.14 1026.25 1036.14C1029.38 1036.81 1032.43 1037.36 1035.41 1037.77C1042.08 1017.21 1041.08 994.95 1032.59 975.07C1032.66 981.687 1031.88 990.494 1028.25 998.681ZM998.322 987.348C998.003 986.392 997.489 984.861 996.731 982.926C994.878 978.14 992.661 973.502 990.099 969.053C986.401 962.679 982.27 957.375 977.793 953.282C967.926 951.999 955.603 951.9 940.155 953.005C930.569 961.64 924.076 978.611 921.719 985.554C921.483 986.254 921.269 986.884 921.091 987.448C921.877 988.846 922.699 990.286 923.518 991.71C927.232 998.114 930.791 1003.62 934.228 1008.94C936.326 1012.18 938.328 1015.24 940.288 1018.44C940.935 1018.56 942.073 1018.77 943.589 1019.02C947.198 1019.61 950.831 1020.04 954.365 1020.35C961.78 1020.96 972.304 1021.18 980.53 1018.71C986.696 1009.55 993.627 998.882 998.427 987.691C998.399 987.594 998.355 987.478 998.322 987.362V987.348ZM1032.59 975.062C1032.53 974.938 1032.48 974.813 1032.43 974.695C1032.48 974.819 1032.53 974.946 1032.59 975.07L1032.59 975.062ZM936.365 1080.54C948.358 1081.44 961.35 1082.08 975.144 1080.61C975.63 1080.11 976.427 1079.25 977.418 1078.13C979.07 1076.29 981.582 1073.36 984.264 1069.83C988.481 1064.27 993.955 1056.03 996.342 1048.08C995.435 1046.49 994.399 1044.7 993.197 1042.61C991.659 1039.96 990.027 1037.18 988.367 1034.33C985.799 1029.95 983.167 1025.45 980.73 1021.2C966.572 1025.21 947.075 1022.17 940.385 1020.93C935.463 1028.42 929.794 1035.85 924.339 1043.04C922.674 1045.22 920.966 1047.46 919.292 1049.67C920.456 1055.27 923.329 1062.36 927.024 1068.74L926.591 1068.99L926.61 1069.02L927.043 1068.77C930.191 1074.22 933.564 1078.48 936.357 1080.54H936.365ZM980.019 952.043C984.461 956.231 988.547 961.541 992.195 967.84C995.618 973.786 998.437 980.057 1000.61 986.56C1009.23 987.486 1022.02 993.028 1026.54 996.511C1030.63 986.403 1030.48 975.596 1029.85 969.255C1029.16 967.903 1028.43 966.568 1027.67 965.247C1021.83 955.158 1014.08 946.295 1004.85 939.152C1003.87 938.773 1002.9 938.4 1001.95 938.046C996.696 936.129 991.272 934.721 985.749 933.84C986.337 938.458 984.452 944.429 980.019 952.043ZM998.463 1049.39C993.991 1063.49 980.844 1078.12 977.14 1082C978.509 1084.67 980.985 1089.77 982.115 1094.09C986.376 1092.44 990.508 1090.47 994.474 1088.2C1013.22 1077.48 1027.47 1060.4 1034.63 1040.09C1031.53 1039.63 1028.34 1039.06 1025.11 1038.35C1017.78 1045.7 1005.56 1048.41 998.463 1049.39ZM864.19 979.46C864.265 979.286 864.307 979.128 864.37 978.968C864.312 979.128 864.257 979.28 864.19 979.462V979.46ZM884.949 1033.84C882.676 1026.89 883.12 1004.06 884.783 996.972C878.156 989.233 873.679 981.419 871.735 974.211C870.308 975.198 868.87 976.204 867.571 977.102C866.272 978 865.137 978.794 864.184 979.457C856.31 1000.94 856.969 1024.61 866.028 1045.63C867.977 1046.73 869.811 1048.02 871.505 1049.49C874.278 1045.53 879.692 1038.71 884.949 1033.84V1033.84ZM934.319 1081.99C931.368 1079.59 928.073 1075.37 924.933 1069.96C921.133 1063.41 918.179 1056.11 916.944 1050.33C911.447 1048.71 893.319 1041.24 886.515 1035.71C881.171 1040.69 875.411 1048 872.865 1051.83C873.665 1054.87 874.223 1058.05 874.808 1061.41C874.811 1061.42 874.811 1061.44 874.808 1061.45C885.697 1077.13 901.307 1088.95 919.384 1095.21C925.158 1091.47 931.063 1085.93 934.319 1081.99ZM925.547 930.987C931.76 925.882 939.549 922.264 948.758 920.208C933.054 920.277 917.64 924.429 904.043 932.253C900.747 934.137 897.576 936.23 894.549 938.519C901.367 935.056 913.221 930.293 925.539 930.987H925.547ZM997.544 934.072C988.987 928.715 979.591 924.818 969.745 922.543C975.118 924.669 980.131 927.606 984.605 931.253C988.985 931.84 993.31 932.783 997.536 934.072H997.544ZM886.293 995.035C896.412 989.637 907.924 986.588 918.873 986.389C920.989 979.88 927.676 961.397 938.028 951.662C937.767 951.109 937.42 950.487 937.001 949.769C934.094 944.755 928.265 936.711 925.666 933.411C910.922 932.48 896.318 940.125 892.165 942.508C891.762 942.734 891.448 942.93 891.19 943.08C883.803 950.692 876.755 963.685 873.754 972.232C874.645 976.14 876.313 980.283 878.773 984.518C880.964 988.237 883.481 991.756 886.293 995.035Z" fill="white"/>
<path d="M1028.25 998.681C1031.11 1006.45 1028.79 1028.15 1026.25 1036.14C1029.38 1036.81 1032.43 1037.36 1035.41 1037.77C1042.08 1017.21 1041.08 994.95 1032.59 975.07C1032.66 981.688 1031.88 990.494 1028.25 998.681ZM998.322 987.348C998.003 986.392 997.489 984.861 996.731 982.926C994.878 978.14 992.661 973.503 990.099 969.053C986.401 962.679 982.27 957.375 977.793 953.282C967.926 951.999 955.603 951.9 940.155 953.005C930.569 961.64 924.076 978.611 921.719 985.554C921.483 986.254 921.269 986.884 921.091 987.448C921.877 988.846 922.699 990.286 923.518 991.71C927.232 998.114 930.791 1003.62 934.228 1008.94C936.326 1012.18 938.328 1015.24 940.288 1018.44C940.935 1018.56 942.073 1018.78 943.589 1019.02C947.198 1019.61 950.831 1020.04 954.365 1020.35C961.78 1020.96 972.304 1021.18 980.53 1018.71C986.696 1009.55 993.627 998.882 998.427 987.691C998.399 987.594 998.355 987.478 998.322 987.362V987.348ZM1032.59 975.062C1032.53 974.938 1032.48 974.813 1032.43 974.695C1032.48 974.819 1032.54 974.946 1032.59 975.07V975.062ZM936.365 1080.54C948.358 1081.44 961.35 1082.08 975.144 1080.61C975.63 1080.11 976.427 1079.25 977.418 1078.13C979.07 1076.29 981.582 1073.36 984.264 1069.83C988.481 1064.27 993.955 1056.03 996.342 1048.08C995.435 1046.49 994.399 1044.7 993.197 1042.61C991.659 1039.96 990.027 1037.18 988.367 1034.33C985.799 1029.95 983.167 1025.45 980.73 1021.2C966.572 1025.21 947.075 1022.17 940.385 1020.93C935.463 1028.42 929.794 1035.85 924.339 1043.04C922.674 1045.22 920.966 1047.46 919.292 1049.67C920.456 1055.27 923.329 1062.36 927.024 1068.74L926.591 1068.99L926.61 1069.02L927.043 1068.77C930.191 1074.22 933.564 1078.48 936.357 1080.54H936.365ZM980.019 952.043C984.461 956.231 988.547 961.541 992.195 967.84C995.618 973.786 998.437 980.057 1000.61 986.56C1009.23 987.486 1022.02 993.028 1026.54 996.511C1030.63 986.403 1030.48 975.596 1029.85 969.255C1029.16 967.903 1028.43 966.568 1027.67 965.247C1021.83 955.158 1014.08 946.295 1004.85 939.152C1003.87 938.773 1002.9 938.4 1001.95 938.047C996.696 936.13 991.272 934.721 985.749 933.84C986.337 938.458 984.452 944.429 980.019 952.043ZM998.463 1049.39C993.991 1063.49 980.844 1078.12 977.14 1082C978.509 1084.67 980.985 1089.77 982.115 1094.09C986.376 1092.44 990.508 1090.47 994.474 1088.2C1013.22 1077.48 1027.47 1060.4 1034.63 1040.09C1031.53 1039.63 1028.34 1039.06 1025.11 1038.35C1017.78 1045.7 1005.56 1048.41 998.463 1049.39ZM864.19 979.46C864.265 979.286 864.307 979.128 864.37 978.968C864.312 979.128 864.257 979.277 864.19 979.46ZM884.949 1033.84C882.676 1026.89 883.12 1004.06 884.783 996.973C878.156 989.233 873.679 981.419 871.735 974.211C870.308 975.198 868.87 976.204 867.571 977.102C866.272 978 865.137 978.794 864.184 979.457C856.31 1000.94 856.969 1024.61 866.028 1045.63C867.977 1046.73 869.811 1048.02 871.505 1049.49C874.278 1045.53 879.692 1038.7 884.949 1033.84ZM934.319 1081.99C931.368 1079.59 928.073 1075.37 924.933 1069.96C921.133 1063.41 918.179 1056.11 916.944 1050.33C911.447 1048.71 893.319 1041.24 886.515 1035.71C881.171 1040.69 875.411 1048 872.865 1051.83C873.665 1054.87 874.223 1058.05 874.808 1061.41C874.811 1061.42 874.811 1061.44 874.808 1061.45C885.697 1077.13 901.307 1088.95 919.384 1095.21C925.158 1091.47 931.063 1085.94 934.319 1081.99ZM925.547 930.987C931.76 925.882 939.549 922.264 948.758 920.208C933.054 920.277 917.64 924.429 904.043 932.253C900.747 934.137 897.576 936.23 894.549 938.519C901.367 935.056 913.221 930.293 925.539 930.987H925.547ZM997.544 934.072C988.987 928.715 979.591 924.818 969.745 922.543C975.118 924.669 980.131 927.607 984.605 931.253C988.985 931.84 993.31 932.783 997.536 934.072H997.544ZM886.293 995.035C896.412 989.637 907.924 986.588 918.873 986.389C920.989 979.88 927.676 961.397 938.028 951.662C937.767 951.109 937.42 950.487 937.001 949.769C934.094 944.755 928.265 936.711 925.666 933.411C910.922 932.48 896.318 940.125 892.165 942.508C891.762 942.734 891.448 942.931 891.19 943.08C883.803 950.692 876.755 963.686 873.754 972.232C874.645 976.14 876.313 980.283 878.773 984.518C880.964 988.237 883.481 991.756 886.293 995.035Z" fill="white"/>
<path opacity="0.33" d="M1018.62 958.785C1018.62 958.785 992.564 927.275 971.472 926.667C950.379 926.059 938.595 942.11 969.612 964.354C1000.63 986.599 979.536 1018.71 1008.07 1029.83C1036.61 1040.94 1039.09 992.138 1024.2 964.354" fill="white"/>
</g>
<ellipse cx="456.664" cy="1074.35" rx="39.5952" ry="39.5951" fill="#444444"/>
<path d="M496.162 1070.26C497.494 1073.78 496.411 1083.6 495.226 1087.21C496.687 1087.52 498.112 1087.76 499.5 1087.95C502.614 1078.65 502.148 1068.58 498.187 1059.58C498.22 1062.57 497.856 1066.56 496.162 1070.26ZM482.198 1065.14C482.049 1064.7 481.809 1064.01 481.456 1063.13C480.592 1060.97 479.557 1058.87 478.362 1056.86C476.637 1053.97 474.709 1051.57 472.62 1049.72C468.017 1049.14 462.268 1049.09 455.061 1049.59C450.588 1053.5 447.559 1061.18 446.46 1064.32C446.349 1064.64 446.25 1064.93 446.167 1065.18C446.533 1065.81 446.917 1066.47 447.299 1067.11C449.032 1070.01 450.692 1072.5 452.295 1074.91C453.275 1076.37 454.208 1077.76 455.123 1079.2C455.425 1079.26 455.956 1079.36 456.663 1079.47C458.346 1079.73 460.042 1079.93 461.691 1080.07C465.15 1080.35 470.06 1080.45 473.897 1079.33C476.774 1075.18 480.008 1070.36 482.247 1065.29C482.234 1065.25 482.214 1065.19 482.198 1065.14V1065.14ZM498.187 1059.58C498.158 1059.52 498.134 1059.46 498.113 1059.41C498.135 1059.47 498.161 1059.52 498.187 1059.58V1059.58ZM453.293 1107.31C458.888 1107.71 464.949 1108 471.385 1107.34C471.611 1107.11 471.983 1106.73 472.446 1106.21C473.216 1105.39 474.388 1104.06 475.639 1102.46C477.607 1099.95 480.161 1096.22 481.275 1092.62C480.851 1091.9 480.368 1091.09 479.807 1090.14C479.09 1088.94 478.328 1087.68 477.554 1086.39C476.356 1084.41 475.128 1082.38 473.991 1080.46C467.385 1082.27 458.289 1080.89 455.168 1080.33C452.872 1083.72 450.227 1087.08 447.682 1090.34C446.905 1091.32 446.109 1092.34 445.328 1093.34C445.87 1095.87 447.211 1099.08 448.935 1101.97L448.733 1102.08L448.742 1102.09L448.944 1101.98C450.412 1104.44 451.986 1106.37 453.289 1107.31H453.293ZM473.659 1049.16C475.731 1051.05 477.638 1053.46 479.34 1056.31C480.937 1059 482.252 1061.84 483.265 1064.78C487.289 1065.2 493.256 1067.71 495.361 1069.28C497.272 1064.71 497.201 1059.82 496.906 1056.95C496.587 1056.34 496.245 1055.73 495.889 1055.13C493.166 1050.57 489.55 1046.56 485.242 1043.33C484.787 1043.15 484.335 1042.99 483.889 1042.83C481.44 1041.96 478.909 1041.32 476.332 1040.92C476.607 1043.01 475.727 1045.71 473.659 1049.16ZM482.264 1093.21C480.178 1099.59 474.044 1106.21 472.316 1107.97C472.955 1109.17 474.11 1111.49 474.637 1113.44C476.625 1112.69 478.552 1111.8 480.403 1110.77C489.15 1105.92 495.799 1098.19 499.136 1089C497.691 1088.8 496.204 1088.54 494.698 1088.21C491.276 1091.54 485.577 1092.77 482.264 1093.21ZM419.62 1061.57C419.655 1061.49 419.674 1061.42 419.704 1061.34C419.677 1061.42 419.651 1061.48 419.62 1061.57ZM429.305 1086.17C428.244 1083.03 428.452 1072.7 429.228 1069.49C426.136 1065.99 424.047 1062.45 423.14 1059.19C422.475 1059.64 421.804 1060.09 421.198 1060.5C420.591 1060.91 420.062 1061.26 419.617 1061.56C415.944 1071.29 416.251 1082 420.477 1091.51C421.387 1092.01 422.243 1092.59 423.033 1093.25C424.327 1091.46 426.852 1088.37 429.305 1086.17ZM452.338 1107.96C450.961 1106.88 449.424 1104.97 447.959 1102.52C446.186 1099.56 444.808 1096.25 444.232 1093.64C441.667 1092.9 433.21 1089.52 430.036 1087.02C427.543 1089.27 424.855 1092.58 423.667 1094.31C424.04 1095.69 424.301 1097.13 424.574 1098.65C424.575 1098.66 424.575 1098.66 424.574 1098.67C429.654 1105.76 436.937 1111.11 445.37 1113.94C448.064 1112.25 450.819 1109.75 452.338 1107.96ZM448.246 1039.63C451.144 1037.32 454.778 1035.68 459.074 1034.75C451.748 1034.78 444.557 1036.66 438.213 1040.2C436.675 1041.06 435.196 1042 433.784 1043.04C436.965 1041.47 442.495 1039.32 448.242 1039.63H448.246ZM481.835 1041.03C477.843 1038.6 473.46 1036.84 468.866 1035.81C471.373 1036.77 473.711 1038.1 475.799 1039.75C477.842 1040.02 479.86 1040.44 481.831 1041.03H481.835ZM429.932 1068.61C434.653 1066.17 440.024 1064.79 445.132 1064.7C446.119 1061.76 449.239 1053.39 454.069 1048.99C453.947 1048.74 453.785 1048.46 453.589 1048.13C452.233 1045.86 449.514 1042.22 448.301 1040.73C441.423 1040.31 434.609 1043.77 432.671 1044.84C432.484 1044.95 432.337 1045.04 432.217 1045.1C428.77 1048.55 425.482 1054.43 424.082 1058.3C424.498 1060.06 425.276 1061.94 426.424 1063.85C427.446 1065.54 428.62 1067.13 429.932 1068.61Z" fill="white"/>
<defs>
<linearGradient id="paint0_linear" x1="841.864" y1="888.176" x2="851.008" y2="884.299" gradientUnits="userSpaceOnUse">
<stop stop-color="#487490"/>
<stop offset="1" stop-color="#114A6F"/>
</linearGradient>
<linearGradient id="paint1_linear" x1="844.263" y1="887.168" x2="851.011" y2="884.306" gradientUnits="userSpaceOnUse">
<stop stop-color="#114A6F"/>
<stop offset="1" stop-color="#487490"/>
</linearGradient>
<linearGradient id="paint2_linear" x1="38587.2" y1="29968" x2="42027.9" y2="29968" gradientUnits="userSpaceOnUse">
<stop stop-color="#487490"/>
<stop offset="1" stop-color="#114A6F"/>
</linearGradient>
<linearGradient id="paint3_linear" x1="38587.2" y1="29968" x2="42027.9" y2="29968" gradientUnits="userSpaceOnUse">
<stop stop-color="#114A6F"/>
<stop offset="1" stop-color="#487490"/>
</linearGradient>
<linearGradient id="paint4_linear" x1="43743.3" y1="28457.3" x2="50698.1" y2="28457.3" gradientUnits="userSpaceOnUse">
<stop stop-color="#487490"/>
<stop offset="1" stop-color="#114A6F"/>
</linearGradient>
<linearGradient id="paint5_linear" x1="43751.5" y1="28457.3" x2="50707.6" y2="28457.3" gradientUnits="userSpaceOnUse">
<stop stop-color="#114A6F"/>
<stop offset="1" stop-color="#487490"/>
</linearGradient>
<linearGradient id="paint6_linear" x1="45965.1" y1="27160.2" x2="55569.9" y2="27160.2" gradientUnits="userSpaceOnUse">
<stop stop-color="#487490"/>
<stop offset="1" stop-color="#114A6F"/>
</linearGradient>
<linearGradient id="paint7_linear" x1="45974.8" y1="27160.2" x2="55581.7" y2="27160.2" gradientUnits="userSpaceOnUse">
<stop stop-color="#114A6F"/>
<stop offset="1" stop-color="#487490"/>
</linearGradient>
<linearGradient id="paint8_linear" x1="48495.3" y1="18937.1" x2="63520.5" y2="18937.1" gradientUnits="userSpaceOnUse">
<stop stop-color="#487490"/>
<stop offset="1" stop-color="#114A6F"/>
</linearGradient>
<linearGradient id="paint9_linear" x1="48495.3" y1="18937.1" x2="63520.5" y2="18937.1" gradientUnits="userSpaceOnUse">
<stop stop-color="#114A6F"/>
<stop offset="1" stop-color="#487490"/>
</linearGradient>
<linearGradient id="paint10_linear" x1="10081.3" y1="33305.8" x2="11494.6" y2="33305.8" gradientUnits="userSpaceOnUse">
<stop stop-color="#114A6F"/>
<stop offset="1" stop-color="#487490"/>
</linearGradient>
<linearGradient id="paint11_linear" x1="8501.52" y1="33300" x2="9672.31" y2="33300" gradientUnits="userSpaceOnUse">
<stop stop-color="#487490"/>
<stop offset="1" stop-color="#114A6F"/>
</linearGradient>
<linearGradient id="paint12_linear" x1="18753.3" y1="37614.1" x2="22418.2" y2="37614.1" gradientUnits="userSpaceOnUse">
<stop stop-color="#114A6F"/>
<stop offset="1" stop-color="#487490"/>
</linearGradient>
<linearGradient id="paint13_linear" x1="18753.3" y1="37614.1" x2="22418.2" y2="37614.1" gradientUnits="userSpaceOnUse">
<stop stop-color="#487490"/>
<stop offset="1" stop-color="#114A6F"/>
</linearGradient>
<linearGradient id="paint14_linear" x1="24122.7" y1="40751" x2="29419.8" y2="40751" gradientUnits="userSpaceOnUse">
<stop stop-color="#114A6F"/>
<stop offset="1" stop-color="#487490"/>
</linearGradient>
<linearGradient id="paint15_linear" x1="24129.8" y1="40748" x2="29428.5" y2="40748" gradientUnits="userSpaceOnUse">
<stop stop-color="#487490"/>
<stop offset="1" stop-color="#114A6F"/>
</linearGradient>
<linearGradient id="paint16_linear" x1="30175.1" y1="43537.3" x2="37525.7" y2="43537.3" gradientUnits="userSpaceOnUse">
<stop stop-color="#114A6F"/>
<stop offset="1" stop-color="#487490"/>
</linearGradient>
<linearGradient id="paint17_linear" x1="30175.1" y1="43537.3" x2="37525.7" y2="43537.3" gradientUnits="userSpaceOnUse">
<stop stop-color="#487490"/>
<stop offset="1" stop-color="#114A6F"/>
</linearGradient>
<linearGradient id="paint18_linear" x1="49033.3" y1="15319.3" x2="66321.5" y2="15319.3" gradientUnits="userSpaceOnUse">
<stop stop-color="#487490"/>
<stop offset="1" stop-color="#114A6F"/>
</linearGradient>
<linearGradient id="paint19_linear" x1="49033.3" y1="15319" x2="66321.5" y2="15319" gradientUnits="userSpaceOnUse">
<stop stop-color="#114A6F"/>
<stop offset="1" stop-color="#487490"/>
</linearGradient>
<linearGradient id="paint20_linear" x1="41618.8" y1="47795.9" x2="53315.7" y2="47795.9" gradientUnits="userSpaceOnUse">
<stop stop-color="#114A6F"/>
<stop offset="1" stop-color="#487490"/>
</linearGradient>
<linearGradient id="paint21_linear" x1="41618.8" y1="47795.9" x2="53315.7" y2="47795.9" gradientUnits="userSpaceOnUse">
<stop stop-color="#487490"/>
<stop offset="1" stop-color="#114A6F"/>
</linearGradient>
<linearGradient id="paint22_linear" x1="35365" y1="44574.8" x2="44636.3" y2="44574.8" gradientUnits="userSpaceOnUse">
<stop stop-color="#114A6F"/>
<stop offset="1" stop-color="#487490"/>
</linearGradient>
<linearGradient id="paint23_linear" x1="35365" y1="44574.8" x2="44636.3" y2="44574.8" gradientUnits="userSpaceOnUse">
<stop stop-color="#487490"/>
<stop offset="1" stop-color="#114A6F"/>
</linearGradient>
<linearGradient id="paint24_linear" x1="48823" y1="20286.6" x2="63848.3" y2="20286.6" gradientUnits="userSpaceOnUse">
<stop stop-color="#487490"/>
<stop offset="1" stop-color="#114A6F"/>
</linearGradient>
<linearGradient id="paint25_linear" x1="48823" y1="20286.6" x2="63848.3" y2="20286.6" gradientUnits="userSpaceOnUse">
<stop stop-color="#114A6F"/>
<stop offset="1" stop-color="#487490"/>
</linearGradient>
<linearGradient id="paint26_linear" x1="35546" y1="47770.8" x2="44816.7" y2="47770.8" gradientUnits="userSpaceOnUse">
<stop stop-color="#114A6F"/>
<stop offset="1" stop-color="#487490"/>
</linearGradient>
<linearGradient id="paint27_linear" x1="35546" y1="47770.8" x2="44816.7" y2="47770.8" gradientUnits="userSpaceOnUse">
<stop stop-color="#487490"/>
<stop offset="1" stop-color="#114A6F"/>
</linearGradient>
<linearGradient id="paint28_linear" x1="843.94" y1="857.4" x2="863.796" y2="848.98" gradientUnits="userSpaceOnUse">
<stop stop-color="#114A6F"/>
<stop offset="0.25" stop-color="#174E72"/>
<stop offset="0.56" stop-color="#275B7C"/>
<stop offset="0.92" stop-color="#416F8C"/>
<stop offset="1" stop-color="#487490"/>
</linearGradient>
<linearGradient id="paint29_linear" x1="843.94" y1="857.4" x2="863.796" y2="848.98" gradientUnits="userSpaceOnUse">
<stop stop-color="#487490"/>
<stop offset="0.08" stop-color="#416F8C"/>
<stop offset="0.44" stop-color="#275B7C"/>
<stop offset="0.75" stop-color="#174E72"/>
<stop offset="1" stop-color="#114A6F"/>
</linearGradient>
<linearGradient id="paint30_linear" x1="1061.32" y1="1024.31" x2="1042.72" y2="997.445" gradientUnits="userSpaceOnUse">
<stop stop-color="#82AA63"/>
<stop offset="1" stop-color="#92B577"/>
</linearGradient>
<linearGradient id="paint31_linear" x1="140672" y1="26939.4" x2="165393" y2="26939.4" gradientUnits="userSpaceOnUse">
<stop stop-color="#82AA63"/>
<stop offset="1" stop-color="#92B577"/>
</linearGradient>
<linearGradient id="paint32_linear" x1="1057.38" y1="872.18" x2="942.05" y2="972.768" gradientUnits="userSpaceOnUse">
<stop stop-color="#21BF73"/>
<stop offset="1" stop-color="#21BF73"/>
</linearGradient>
<clipPath id="clip0">
<rect width="324.41" height="286.244" fill="white" transform="translate(807.844 814.205)"/>
</clipPath>
</defs>
</svg>
