<svg width="471" height="297" viewBox="0 0 471 297" fill="none" xmlns="http://www.w3.org/2000/svg">
<rect width="470.745" height="297" fill="#21BF73"/>
<path d="M239.606 174.395L239.866 130.864L230.145 130.812L229.937 170.343C229.937 170.343 229.937 170.447 229.937 170.551V173.772C229.729 179.382 228.326 190.031 220.788 189.979L248.599 190.135C241.27 190.083 239.814 180.161 239.606 174.395Z" fill="#E5D429"/>
<path d="M192.873 86.2409C195.005 87.3837 196.98 88.9421 198.54 90.8642C202.594 95.7991 203.374 101.981 200.567 107.487C199.475 109.669 197.656 111.279 195.473 112.059C194.485 112.474 193.393 112.682 192.25 112.682C188.507 112.786 184.764 110.864 182.997 107.903C181.541 105.409 181.541 102.5 183.049 99.851C184.036 98.1368 186.272 97.5134 187.987 98.5524C189.703 99.5394 190.326 101.773 189.287 103.487C189.027 103.903 189.079 104.059 189.183 104.215C189.547 104.838 190.794 105.461 191.99 105.461C193.289 105.409 193.809 104.682 194.069 104.163C194.121 104.059 194.173 104.007 194.173 103.903C195.785 100.526 194.537 97.7212 193.341 96.0589C193.185 95.8511 193.029 95.6433 192.873 95.4875C189.962 91.9551 184.868 90.2408 180.813 91.4356C176.135 92.8382 173.068 97.929 172.236 105.773C170.521 120.89 181.177 131.227 187.675 136.006C194.745 141.201 201.763 143.85 206.545 144.837C209.248 145.409 211.224 145.461 212.055 145.097C213.875 144.318 216.006 145.149 216.786 146.967C217.306 148.058 217.15 149.305 216.63 150.24C216.266 150.863 215.694 151.435 214.966 151.746C214.135 152.11 213.147 152.37 212.055 152.474C204.934 153.253 193.029 148.993 183.413 141.876C170.001 132.006 163.503 118.968 165.062 105.046C166.726 90.2927 174.367 85.8772 178.786 84.5785C183.413 83.176 188.507 83.9032 192.873 86.2409Z" fill="#E5D429"/>
<path opacity="0.5" d="M216.89 146.967C217.409 148.058 217.254 149.305 216.734 150.24C216.37 150.863 215.798 151.435 215.07 151.746C214.238 152.11 213.251 152.37 212.159 152.474C210.132 150.188 208.312 147.642 206.649 144.889C209.352 145.461 211.327 145.513 212.159 145.149C213.979 144.318 216.11 145.149 216.89 146.967Z" fill="#E5D429"/>
<path d="M275.734 86.1889C273.551 87.2798 271.576 88.7863 269.912 90.6044C265.702 95.3836 264.714 101.565 267.365 107.176C268.405 109.409 270.12 111.02 272.304 111.903C273.291 112.318 274.383 112.578 275.475 112.63C279.217 112.838 283.012 111.02 284.884 108.163C286.443 105.721 286.495 102.812 285.039 100.111C284.104 98.3446 281.92 97.7212 280.153 98.6563C278.438 99.5913 277.762 101.773 278.698 103.539C278.957 104.007 278.853 104.111 278.801 104.267C278.386 104.838 277.138 105.461 275.942 105.409C274.643 105.305 274.123 104.578 273.863 104.007C273.811 103.903 273.759 103.851 273.759 103.747C272.252 100.319 273.603 97.5654 274.851 95.903C275.007 95.6953 275.163 95.5394 275.319 95.3316C278.334 91.9031 283.48 90.3447 287.483 91.6434C292.109 93.2018 295.02 98.3446 295.644 106.241C296.892 121.409 285.923 131.383 279.269 135.954C272.044 140.941 264.922 143.383 260.14 144.214C257.384 144.733 255.409 144.682 254.629 144.318C252.81 143.435 250.679 144.214 249.847 146.032C249.327 147.123 249.379 148.318 249.899 149.305C250.263 149.98 250.783 150.5 251.51 150.811C252.342 151.227 253.33 151.487 254.421 151.591C261.491 152.578 273.551 148.681 283.376 141.876C297.048 132.422 303.961 119.539 302.818 105.617C301.57 90.8122 294.085 86.1889 289.718 84.7344C285.299 83.4357 280.153 83.9552 275.734 86.1889Z" fill="#E5D429"/>
<path opacity="0.5" d="M249.899 146.136C249.379 147.227 249.431 148.422 249.951 149.409C250.314 150.084 250.834 150.603 251.562 150.915C252.394 151.331 253.381 151.59 254.473 151.694C256.604 149.461 258.476 146.967 260.191 144.318C257.436 144.837 255.461 144.785 254.681 144.422C252.914 143.591 250.73 144.37 249.899 146.136Z" fill="#E5D429"/>
<path d="M271.42 80.9941C271.42 80.9941 271.42 83.5915 271.212 87.8512C270.328 104.734 265.702 147.954 240.906 160.266L239.71 161.305C238.203 162.603 236.227 163.279 234.2 163.175L232.952 163.123C231.185 163.071 229.522 162.447 228.17 161.357L226.766 160.214C202.438 147.798 198.072 105.461 197.292 88.1109C197.084 83.4357 197.136 80.5786 197.136 80.5786C197.136 76.4228 202.023 75.3319 202.023 75.3319L266.482 75.6955C266.586 75.6955 271.472 76.8384 271.42 80.9941Z" fill="#E5D429"/>
<path d="M267.625 86.5005L200.931 86.1369C196.824 86.1369 193.549 82.7603 193.549 78.6565C193.549 74.5527 196.928 71.28 201.035 71.28L267.729 71.6436C271.836 71.6436 275.111 75.0202 275.111 79.124C275.111 83.2279 271.732 86.5525 267.625 86.5005Z" fill="#21BF73"/>
<path d="M267.625 86.5005L200.931 86.1369C196.824 86.1369 193.549 82.7603 193.549 78.6565C193.549 74.5527 196.928 71.28 201.035 71.28L267.729 71.6436C271.836 71.6436 275.111 75.0202 275.111 79.124C275.111 83.2279 271.732 86.5525 267.625 86.5005Z" fill="#21BF73"/>
<path d="M267.625 86.5005L200.931 86.1369C196.824 86.1369 193.549 82.7603 193.549 78.6565C193.549 74.5527 196.928 71.28 201.035 71.28L267.729 71.6436C271.836 71.6436 275.111 75.0202 275.111 79.124C275.111 83.2279 271.732 86.5525 267.625 86.5005Z" fill="#E5D429"/>
<path d="M265.546 227.122L203.322 226.758L203.478 197.096C203.478 195.174 205.038 193.668 206.961 193.668L262.271 193.979C264.195 193.979 265.702 195.538 265.702 197.46L265.546 227.122Z" fill="#0E538C"/>
<path d="M269.185 227.174L199.683 226.758C199.371 226.758 199.111 226.498 199.163 226.187V221.979C199.163 221.667 199.423 221.408 199.735 221.408L269.237 221.823C269.549 221.823 269.808 222.083 269.808 222.395V226.602C269.756 226.914 269.497 227.174 269.185 227.174Z" fill="#FFB127"/>
<path d="M269.185 227.174L199.683 226.758C199.371 226.758 199.111 226.498 199.163 226.187V221.979C199.163 221.667 199.423 221.408 199.735 221.408L269.237 221.823C269.549 221.823 269.808 222.083 269.808 222.395V226.602C269.756 226.914 269.497 227.174 269.185 227.174Z" fill="#0B4870"/>
<path d="M249.795 193.927L219.437 193.772C219.229 193.772 219.021 193.616 219.021 193.356V190.343C219.021 190.135 219.177 189.927 219.437 189.927L249.795 190.083C250.003 190.083 250.211 190.239 250.211 190.499V193.512C250.159 193.772 250.003 193.927 249.795 193.927Z" fill="#21BF73"/>
<path opacity="0.5" d="M249.795 193.927L219.437 193.772C219.229 193.772 219.021 193.616 219.021 193.356V190.343C219.021 190.135 219.177 189.927 219.437 189.927L249.795 190.083C250.003 190.083 250.211 190.239 250.211 190.499V193.512C250.159 193.772 250.003 193.927 249.795 193.927Z" fill="#E5D429"/>
</svg>
