<svg width="604" height="381" viewBox="0 0 604 381" fill="none" xmlns="http://www.w3.org/2000/svg">
<rect width="604" height="381" fill="#21BF73"/>
<g clip-path="url(#clip0)">
<path d="M163.628 244.357C189.483 304.115 268.445 317.792 321.597 304.349C332.032 301.709 406.156 281.606 422.359 211.101C433.733 161.606 411.155 110.806 372.953 83.9448C319.484 46.3488 249.824 65.7819 209.784 99.5949C173.55 130.194 140.33 190.507 163.628 244.357Z" fill="#C2E5FF"/>
<path d="M271.543 121.211C271.255 121.211 270.97 121.225 270.684 121.233C267.376 107.203 254.819 96.7594 239.821 96.7594C229.439 96.7594 220.223 101.763 214.436 109.496C209.74 107.592 204.609 106.541 199.232 106.541C176.815 106.541 158.643 124.769 158.643 147.255C158.643 169.741 176.815 187.97 199.232 187.97C204.974 187.97 210.437 186.771 215.388 184.613C220.446 190.136 227.703 193.6 235.768 193.6C245.064 193.6 253.283 188.997 258.301 181.944C262.332 183.805 266.814 184.85 271.543 184.85C289.063 184.85 303.265 170.604 303.265 153.031C303.265 135.457 289.062 121.211 271.543 121.211Z" fill="white"/>
<path d="M338.318 169.99C338.545 169.99 338.77 169.979 338.997 169.973C341.61 181.061 351.535 189.314 363.387 189.314C371.592 189.314 378.875 185.36 383.448 179.248C387.16 180.753 391.215 181.584 395.464 181.584C413.18 181.584 427.541 167.178 427.541 149.408C427.541 131.638 413.18 117.232 395.464 117.232C390.926 117.232 386.609 118.179 382.696 119.885C378.699 115.52 372.964 112.782 366.59 112.782C359.244 112.782 352.748 116.42 348.783 121.994C345.598 120.523 342.055 119.697 338.318 119.697C324.473 119.697 313.249 130.956 313.249 144.844C313.249 158.732 324.472 169.99 338.318 169.99Z" fill="white"/>
<path d="M167.388 295.871C167.388 295.871 218.795 164.454 245.213 157.373C268.765 151.06 332.057 244.484 332.057 244.484C332.057 244.484 358.977 203.643 377.576 186.821C382.045 182.778 389.023 183.533 392.551 188.422C404.192 204.555 430.784 243.991 452.912 295.872H167.388V295.871Z" fill="#21BF73"/>
<path opacity="0.25" d="M167.388 295.871C167.388 295.871 218.795 164.454 245.213 157.373C268.765 151.06 332.057 244.484 332.057 244.484C332.057 244.484 358.977 203.643 377.576 186.821C382.045 182.778 389.023 183.533 392.551 188.422C404.192 204.555 430.784 243.991 452.912 295.872H167.388V295.871Z" fill="#282828"/>
<path d="M225.48 248.94L206.208 311.548H229.286L225.48 248.94Z" fill="#21BF73"/>
<path d="M440.415 311.548C425.556 299.904 412.892 290.375 403.508 283.425C369.739 258.415 322.414 225.303 285.721 222.579C280.648 222.203 276.456 222.457 275.543 222.516C266.23 223.119 244.127 224.549 230.586 241.096C208.514 268.069 228.438 309.756 229.286 311.548H440.415Z" fill="#21BF73"/>
<path opacity="0.5" d="M440.415 311.548C425.556 299.904 412.892 290.375 403.508 283.425C369.739 258.415 322.414 225.303 285.721 222.579C280.648 222.203 276.456 222.457 275.543 222.516C266.23 223.119 244.127 224.549 230.586 241.096C208.514 268.069 228.438 309.756 229.286 311.548H440.415Z" fill="white"/>
<path opacity="0.5" d="M253.064 262.837L299.45 311.548H326.364L265.707 262.837H253.064Z" fill="#0B4870"/>
<path opacity="0.5" d="M288.094 262.837L351.634 311.548H378.548L300.736 262.837H288.094Z" fill="#0B4870"/>
<path opacity="0.5" d="M299.449 235.725L380.971 295.871C380.971 295.871 402.671 290.655 420.099 295.871L302.871 235.725H299.449Z" fill="#0B4870"/>
<path d="M299.449 235.725V115.082H302.871V235.725C302.84 235.77 302.161 236.723 301.011 236.641C300.042 236.571 299.515 235.822 299.449 235.725Z" fill="#0B4870"/>
<path d="M279.906 160.324C280.342 159.711 280.989 158.737 281.64 157.467C282.851 155.105 284.717 151.466 283.254 149.239C283.026 148.892 282.591 148.387 281.712 147.987C281.648 148.184 281.55 148.49 281.429 148.862C279.612 154.459 278.916 155.687 279.114 157.655C279.179 158.296 279.359 159.225 279.906 160.324Z" fill="#0B4870"/>
<path d="M279.587 157.839C278.414 162.058 272.751 162.267 272.751 162.267Z" fill="#EFB68F"/>
<path d="M273.392 164.214C273.392 164.214 266.432 166.597 264.996 167.513C264.996 167.513 274.486 177.549 288.36 167.162C287.256 166.477 287.059 166.45 285.562 165.794C283.63 164.946 280.902 163.804 279.368 163.437L273.392 164.214Z" fill="#EFB68F"/>
<path d="M273.091 162.241L273.532 165.136L279.587 164.896L280.543 157.373H279.092L273.091 162.241Z" fill="#EFB68F"/>
<path d="M282.07 155.619C281.83 156.368 281.283 156.996 280.543 157.372C278.445 158.418 277.957 155.745 278.863 154.528C279.941 153.079 282.71 153.61 282.07 155.619Z" fill="#EFB68F"/>
<path d="M272.227 164.751C272.227 164.751 275.919 169.352 281.436 164.1C282.348 164.175 283.33 164.686 284.534 165.026C286.118 165.473 287.403 166.085 288.36 166.633L287.631 199.974H267.015L264.799 167.628C265.635 167.161 266.615 166.375 267.736 165.947C269.41 165.309 270.948 164.953 272.227 164.751Z" fill="#21BF73"/>
<path d="M288.927 210.586C287.422 212.818 285.893 213.52 284.935 213.78C284.639 213.861 283.695 213.884 281.808 213.966C280.355 214.029 278.842 214.063 277.251 214.059C276.33 214.057 275.427 214.043 274.541 214.018C271.737 213.938 270.335 213.913 269.79 213.772C268.786 213.514 267.021 212.736 265.324 209.876C265.87 206.575 266.415 203.275 266.961 199.974H287.618C288.054 203.512 288.491 207.049 288.927 210.586Z" fill="#0B4870"/>
<path d="M293.77 259.118L292.133 248.94L288.094 249.491L289.721 259.658L293.77 259.118Z" fill="#21BF73"/>
<path d="M289.078 258.808L288.36 262H301.003V261.907C301.003 261.171 300.581 260.502 299.92 260.186L294.053 257.837C293.841 257.737 293.57 257.741 293.409 257.911C292.651 258.714 291.818 260.022 289.504 258.603C289.336 258.5 289.116 258.615 289.078 258.808Z" fill="#0B4870"/>
<path d="M301.003 262H288.36V262.837H301.003V262Z" fill="#21BF73"/>
<path d="M282.812 230.433L291.037 229.343L288.773 209.218C288.457 206.403 285.899 204.398 283.099 204.769C282.317 205.034 280.956 205.61 279.652 206.849C278.185 208.242 277.531 209.769 277.25 210.571C279.104 217.192 280.958 223.812 282.812 230.433Z" fill="#0B4870"/>
<path d="M287.224 255.132L294.145 254.214L290.295 222.425C289.995 219.956 287.744 218.207 285.285 218.533C282.791 218.864 281.064 221.197 281.469 223.688L287.224 255.132Z" fill="#0B4870"/>
<path d="M260.578 259.118L262.214 248.94L266.254 249.491L264.627 259.658L260.578 259.118Z" fill="#21BF73"/>
<path d="M271.353 230.433L263.311 229.343L265.392 209.218C265.709 206.403 268.266 204.398 271.066 204.769C271.222 204.789 271.772 204.871 272.439 205.166C272.439 205.166 273.709 205.735 274.513 206.849C275.403 208.082 275.436 209.592 275.347 210.797C275.131 213.733 273.739 220.96 271.353 230.433Z" fill="#0B4870"/>
<path d="M267.124 255.132L260.203 254.214L264.052 222.425C264.352 219.956 266.604 218.207 269.062 218.533C271.556 218.864 273.284 221.197 272.879 223.688L267.124 255.132Z" fill="#0B4870"/>
<path d="M286.345 198.117C286.914 197.927 287.235 198.053 287.235 198.053C287.558 197.597 288.157 197.539 288.545 197.926L288.82 198.2C289.18 198.558 289.227 199.168 288.928 199.59L288.911 199.615C288.911 199.615 288.381 201.045 287.182 202.334C285.633 204.001 284.219 203.968 283.794 203.39C283.393 202.844 285.128 200.777 285.765 200L284.782 200.318C284.657 200.358 284.524 200.303 284.452 200.182C284.375 200.051 284.389 199.878 284.487 199.766L285.258 198.877C285.56 198.528 285.93 198.255 286.345 198.117Z" fill="#EFB68F"/>
<path d="M287.677 197.715L295.711 184.127C296.414 182.957 297.876 182.75 298.816 183.688C299.665 184.536 299.749 185.991 299.004 186.954L289.117 199.088L287.677 197.715Z" fill="#EFB68F"/>
<path d="M290.069 168.857C292.073 171.569 294.795 174.414 298.781 181.885C299.203 182.676 299.978 184.175 299.581 185.663C299.397 186.353 299.016 186.832 298.722 187.127C298.313 187.067 297.67 186.913 296.972 186.475C296.081 185.916 295.549 185.175 295.289 184.756C291.678 180.388 288.066 176.019 284.455 171.65C283.458 170.349 283.603 168.39 284.772 167.369C285.859 166.419 289.16 167.628 290.069 168.857Z" fill="#EFB68F"/>
<path d="M282.088 164.528C283.432 164.694 285.055 165.054 286.779 165.817C292.028 168.141 294.585 172.592 295.489 174.391C293.9 176.41 292.312 178.429 290.723 180.449C289.957 179.785 288.866 178.785 287.661 177.465C285.681 175.295 283.962 173.411 282.931 170.603C282.483 169.382 281.918 167.314 282.088 164.528Z" fill="#21BF73"/>
<path d="M268.078 198.117C267.513 197.927 267.194 198.053 267.194 198.053C266.872 197.597 266.277 197.539 265.891 197.926L265.617 198.2C265.26 198.558 265.213 199.168 265.51 199.59L265.527 199.615C265.527 199.615 266.054 201.045 267.246 202.334C268.786 204.001 270.193 203.968 270.615 203.39C271.013 202.844 269.288 200.777 268.656 200L269.632 200.318C269.756 200.358 269.889 200.303 269.96 200.182C270.037 200.051 270.023 199.878 269.926 199.766L269.159 198.877C268.859 198.528 268.491 198.255 268.078 198.117Z" fill="#EFB68F"/>
<path d="M266.755 197.715L258.767 184.127C258.068 182.957 256.614 182.75 255.68 183.688C254.836 184.536 254.752 185.991 255.493 186.954L265.323 199.088L266.755 197.715Z" fill="#EFB68F"/>
<path d="M264.377 168.857C262.384 171.569 259.677 174.414 255.715 181.885C255.296 182.676 254.525 184.175 254.92 185.663C255.103 186.353 255.482 186.831 255.773 187.127C256.18 187.067 256.82 186.913 257.514 186.475C258.399 185.916 258.928 185.175 259.186 184.756C262.777 180.387 266.367 176.018 269.958 171.649C270.949 170.349 270.805 168.389 269.643 167.368C268.562 166.418 265.28 167.628 264.377 168.857Z" fill="#EFB68F"/>
<path d="M272.321 164.528C270.985 164.691 269.359 165.049 267.63 165.817C262.515 168.09 260.004 172.394 259.106 174.153C260.722 176.457 262.337 178.76 263.953 181.064C264.625 180.444 265.596 179.498 266.665 178.255C268.401 176.238 270.363 173.957 271.478 170.603C271.903 169.323 272.417 167.25 272.321 164.528Z" fill="#21BF73"/>
<path d="M264.989 258.808L265.707 262H253.064V261.907C253.064 261.171 253.486 260.502 254.147 260.186L260.015 257.837C260.226 257.737 260.497 257.741 260.658 257.911C261.416 258.714 262.249 260.022 264.564 258.603C264.732 258.5 264.952 258.615 264.989 258.808Z" fill="#0B4870"/>
<path d="M253.064 262.838L265.707 262.838L265.707 262L253.064 262L253.064 262.838Z" fill="#21BF73"/>
<path d="M273.091 162.241C273.323 162.579 273.664 162.936 274.141 163.064C275.642 163.468 277.354 161.319 278.042 160.456C278.772 159.539 279.258 158.623 279.587 157.839C279.259 158.371 278.828 158.956 273.091 162.241Z" fill="#E0A882"/>
<path d="M280.467 147.983C278.202 145.202 273.161 144.702 270.659 146.894C269.524 147.888 269.217 149.17 268.764 151.059C268.626 151.637 267.653 155.965 269.804 159.952C270.636 161.495 271.36 161.917 271.864 162.094C272.882 162.45 273.852 162.088 274.748 161.777C276.564 161.145 277.675 159.994 278.081 159.563C280.024 157.504 283.446 151.64 280.467 147.983Z" fill="#EFB68F"/>
<path d="M277.421 149.612C277.421 149.612 280.765 150.915 279.238 155.201L280.376 155.356C280.376 155.356 280.62 153.66 282.106 153.914C282.106 153.914 283.308 147.954 280.277 146.505L277.421 149.612Z" fill="#0B4870"/>
<path d="M277.421 149.612C277.421 149.612 273.507 146.958 270.274 148.563C269.921 148.478 269.11 148.227 268.511 147.478C267.713 146.48 267.618 145.007 268.25 143.703C268.25 143.703 268.854 143.943 269.642 144.129C270.754 144.392 271.631 144.272 272.133 144.232C273.222 144.144 275.252 143.981 276.684 144.287C277.627 144.489 278.904 145.02 280.277 146.505C281.115 147.291 281.18 148.605 280.457 149.447C279.7 150.329 278.312 150.422 277.421 149.612Z" fill="#0B4870"/>
<path d="M270.274 148.564C270.274 148.564 269.192 149.98 268.56 152.992C268.56 152.992 268.844 148.289 269.911 148.052C270.978 147.814 270.274 148.564 270.274 148.564Z" fill="#0B4870"/>
<path d="M359.374 143.638C355.349 142.892 349.193 142.143 341.821 142.922C331.217 144.041 327.026 147.378 317.992 147.714C313.427 147.883 306.777 147.318 298.547 143.639C298.547 132.151 298.547 120.664 298.547 109.177C304.05 112.143 311.195 114.72 319.295 114.029C326.249 113.437 329.363 110.823 337.433 109.177C342.892 108.064 350.227 107.472 359.374 109.177C359.374 120.664 359.374 132.151 359.374 143.638Z" fill="#21BF73"/>
<path d="M329.417 117.951L332.647 124.517L339.871 125.57L334.644 130.681L335.878 137.898L329.417 134.491L322.956 137.898L324.19 130.681L318.962 125.57L326.186 124.517L329.417 117.951Z" fill="white"/>
</g>
<defs>
<clipPath id="clip0">
<rect width="324" height="325" fill="white" transform="translate(124 28)"/>
</clipPath>
</defs>
</svg>
