<svg width="654" height="412" viewBox="0 0 654 412" fill="none" xmlns="http://www.w3.org/2000/svg">
<rect width="653.02" height="412" fill="#21BF73"/>
<path d="M328.679 254.374C298.232 254.374 295.271 292.43 312.883 304.713C321.855 305.831 316.461 307.176 317.329 307.699C320.702 309.733 305.289 328.86 328.679 327.468C341.545 326.703 335.71 323.129 339.085 321.095C344.067 321.025 339.168 309.187 339.172 308.175C359.272 299.193 359.124 254.374 328.679 254.374Z" fill="#0E538C"/>
<path d="M357.829 324.065L340.665 316.915C339.231 316.317 338.295 314.919 338.295 313.365V308.714H319.06V313.365C319.06 314.919 318.127 316.317 316.694 316.915L299.529 324.065C297.379 324.962 295.979 327.063 295.979 329.393V337.087C295.979 339.212 297.701 340.933 299.827 340.933H357.534C359.654 340.933 361.379 339.212 361.379 337.087V329.393C361.378 327.063 359.978 324.962 357.829 324.065Z" fill="#FCD2B1"/>
<path d="M357.829 324.065L341.232 317.152L328.679 322.57L316.125 317.152L299.531 324.065C297.38 324.962 295.979 327.063 295.979 329.393V337.087C295.979 339.212 297.702 340.933 299.827 340.933H357.534C359.655 340.933 361.381 339.212 361.381 337.087V329.393C361.378 327.063 359.978 324.962 357.829 324.065Z" fill="#21BF73"/>
<path d="M328.679 322.569L317.67 314.311C316.963 313.782 315.956 313.955 315.466 314.688L313.29 317.952L320.04 327.402C320.552 328.12 321.564 328.262 322.253 327.709L328.679 322.569Z" fill="#FFE3CA"/>
<path d="M328.679 322.569L339.69 314.311C340.396 313.782 341.404 313.955 341.893 314.688L344.068 317.952L337.319 327.402C336.805 328.12 335.793 328.262 335.104 327.709L328.679 322.569Z" fill="#FFE3CA"/>
<path d="M309.818 283.992C309.786 284.951 309.805 285.915 309.903 286.872L311.281 300.334C311.514 302.869 312.983 305.126 315.208 306.362L326.16 312.448C327.904 313.415 330.022 313.415 331.765 312.448L342.717 306.362C344.943 305.126 346.414 302.869 346.644 300.334L347.841 288.998C347.841 273.611 328.965 281.304 319.346 271.687C317.421 275.534 310.537 279.094 309.818 283.992Z" fill="#FFE3CA"/>
<path d="M260.189 315.768V305.203H233.022V315.768L246.606 327.841L260.189 315.768Z" fill="#FCD2B1"/>
<path d="M281.192 320.708L262.516 316.315C262.234 316.249 261.975 316.136 261.731 316L246.606 324.822L232.07 315.572C231.693 315.925 231.226 316.189 230.695 316.315L212.02 320.708C209.292 321.351 207.365 323.783 207.365 326.584V338.405C207.365 340.073 208.717 341.424 210.384 341.424H282.827C284.493 341.424 285.846 340.073 285.846 338.405V326.584C285.846 323.783 283.919 321.351 281.192 320.708Z" fill="#CCE9FF"/>
<path d="M250.379 341.425H242.833L243.775 327.841H249.436L250.379 341.425Z" fill="#21BF73"/>
<path d="M250.379 324.823H242.833V325.694C242.833 327.715 244.469 329.349 246.489 329.349H246.723C248.742 329.349 250.379 327.715 250.379 325.694V324.823V324.823Z" fill="#21BF73"/>
<path d="M232.81 312.407L246.606 324.823C246.606 324.823 242.742 326.773 237.974 330.702C236.99 331.513 235.504 331.185 234.976 330.026L228.494 315.766L230.544 312.691C231.056 311.925 232.127 311.791 232.81 312.407Z" fill="#2A94F4"/>
<path d="M260.401 312.407L246.606 324.823C246.606 324.823 250.47 326.773 255.237 330.702C256.221 331.513 257.707 331.185 258.236 330.026L264.717 315.766L262.666 312.691C262.157 311.925 261.085 311.791 260.401 312.407Z" fill="#2A94F4"/>
<path d="M269.153 289.462L267.448 296.282C267.247 297.09 266.519 297.655 265.685 297.655C265.442 297.655 265.205 297.607 264.994 297.517L264.908 299.423C264.787 302.128 263.464 304.637 261.297 306.259L255.057 310.938C253.491 312.112 251.584 312.747 249.624 312.747H243.586C241.63 312.747 239.723 312.113 238.154 310.938L231.913 306.259C229.751 304.637 228.422 302.129 228.302 299.423L228.216 297.517C228.005 297.607 227.767 297.655 227.525 297.655C226.695 297.655 225.968 297.09 225.767 296.282L224.061 289.462C223.568 287.494 225.062 285.583 227.094 285.583H227.098C227.296 285.583 227.484 285.601 227.673 285.635L226.986 270.489H266.226L265.536 285.635C265.725 285.601 265.912 285.583 266.109 285.583H266.119C268.153 285.583 269.642 287.494 269.153 289.462Z" fill="#FFE3CA"/>
<path d="M255.756 260.491L257.171 270.49C263.63 271.783 264.56 281.918 264.695 284.814C264.718 285.339 264.887 285.846 265.172 286.289L267.636 290.111C267.636 290.111 269.956 287.123 270.656 279.546C270.654 279.545 271.98 254.454 255.756 260.491Z" fill="#0B4870"/>
<path d="M230.665 259.313C220.571 266.764 222.459 279.546 222.459 279.546C223.151 285.583 225.477 290.111 225.477 290.111L228.496 287.091C228.496 287.091 227.331 278.373 233.024 275.019C238.307 271.905 242.929 273.508 247.645 273.508C260.285 273.508 263.822 268.746 263.209 262.946C262.892 259.944 258.303 253.69 246.607 253.889C241.886 253.968 235.256 256.922 230.665 259.313Z" fill="#0B4870"/>
<path d="M422.055 315.768V305.203H394.89V315.768L408.472 327.841L422.055 315.768Z" fill="#FCD2B1"/>
<path d="M443.057 320.708L424.382 316.315C424.1 316.249 423.841 316.136 423.598 316L408.472 324.822L393.935 315.572C393.558 315.925 393.092 316.189 392.561 316.315L373.886 320.708C371.158 321.351 369.233 323.783 369.233 326.584V338.405C369.233 340.073 370.583 341.424 372.25 341.424H444.694C446.36 341.424 447.713 340.073 447.713 338.405V326.584C447.713 323.783 445.785 321.351 443.057 320.708Z" fill="#2A94F4"/>
<path d="M412.247 341.425H404.7L405.642 327.841H411.301L412.247 341.425Z" fill="#0B4870"/>
<path d="M412.247 324.823H404.7V325.694C404.7 327.715 406.336 329.349 408.355 329.349H408.59C410.608 329.349 412.247 327.715 412.247 325.694V324.823Z" fill="#0B4870"/>
<path d="M394.677 312.407L408.472 324.823C408.472 324.823 404.608 326.773 399.84 330.702C398.857 331.513 397.369 331.185 396.842 330.026L390.36 315.766L392.411 312.691C392.921 311.925 393.993 311.791 394.677 312.407Z" fill="#0E538C"/>
<path d="M422.266 312.407L408.472 324.823C408.472 324.823 412.335 326.773 417.103 330.702C418.086 331.513 419.573 331.185 420.101 330.026L426.583 315.766L424.532 312.691C424.023 311.925 422.952 311.791 422.266 312.407Z" fill="#0E538C"/>
<path d="M431.018 289.462L429.312 296.282C429.114 297.09 428.385 297.655 427.551 297.655C427.308 297.655 427.07 297.607 426.862 297.517L426.776 299.423C426.655 302.128 425.33 304.637 423.164 306.259L416.925 310.938C415.358 312.112 413.452 312.747 411.492 312.747H405.451C403.497 312.747 401.589 312.113 400.019 310.938L393.78 306.259C391.617 304.637 390.29 302.129 390.169 299.423L390.082 297.517C389.872 297.607 389.634 297.655 389.393 297.655C388.563 297.655 387.836 297.09 387.635 296.282L385.929 289.462C385.435 287.494 386.93 285.583 388.961 285.583H388.966C389.163 285.583 389.351 285.601 389.541 285.635L388.854 270.489H428.094L427.404 285.635C427.593 285.601 427.779 285.583 427.977 285.583H427.987C430.018 285.583 431.508 287.494 431.018 289.462Z" fill="#FFE3CA"/>
<path d="M417.623 260.491L419.037 270.49C425.496 271.783 426.426 281.918 426.562 284.814C426.584 285.339 426.753 285.846 427.037 286.289L429.502 290.111C429.502 290.111 431.822 287.123 432.522 279.546C432.522 279.545 433.847 254.454 417.623 260.491Z" fill="#21BF73"/>
<path d="M392.531 259.313C382.437 266.764 384.324 279.546 384.324 279.546C385.017 285.583 387.344 290.111 387.344 290.111L390.36 287.091C390.36 287.091 389.196 278.373 394.889 275.019C400.171 271.905 404.793 273.508 409.509 273.508C422.147 273.508 425.686 268.746 425.072 262.946C424.756 259.944 420.166 253.69 408.471 253.889C403.751 253.968 397.122 256.922 392.531 259.313Z" fill="#21BF73"/>
<path d="M463.547 118.302V200.771C463.547 211.204 455.093 219.66 444.661 219.66H413.512L407.06 230.202L400.183 242.337L393.306 230.202L386.854 219.66H343.252L336.8 230.202L329.925 242.337L323.039 230.202L316.595 219.66H266.717L260.257 230.202L253.388 242.337L246.502 230.202L240.059 219.66H210.421C199.988 219.66 191.532 211.204 191.532 200.771V118.302C191.532 107.869 199.987 99.4155 210.421 99.4155H444.661C455.093 99.4155 463.547 107.87 463.547 118.302Z" fill="#CCE9FF"/>
<ellipse cx="281.19" cy="169.95" rx="23.69" ry="23.69" fill="#444444"/>
<path d="M305.723 167.506C306.534 169.61 305.874 175.484 305.152 177.647C306.043 177.83 306.911 177.977 307.758 178.089C309.656 172.524 309.372 166.496 306.957 161.114C306.977 162.905 306.756 165.29 305.723 167.506ZM297.209 164.438C297.118 164.179 296.972 163.765 296.756 163.241C296.229 161.945 295.599 160.689 294.87 159.485C293.818 157.759 292.643 156.323 291.369 155.215C288.563 154.867 285.058 154.841 280.663 155.14C277.936 157.478 276.089 162.073 275.419 163.952C275.352 164.142 275.291 164.312 275.241 164.465C275.464 164.844 275.698 165.234 275.931 165.619C276.987 167.353 278 168.844 278.977 170.284C279.574 171.162 280.144 171.99 280.701 172.855C280.885 172.888 281.209 172.947 281.64 173.012C282.666 173.173 283.7 173.29 284.705 173.373C286.815 173.539 289.808 173.598 292.148 172.93C293.902 170.449 295.873 167.561 297.239 164.531C297.231 164.505 297.218 164.473 297.209 164.442V164.438ZM279.585 189.669C282.997 189.912 286.692 190.086 290.616 189.689C290.754 189.552 290.981 189.321 291.263 189.016C291.732 188.52 292.447 187.727 293.21 186.771C294.409 185.265 295.967 183.034 296.646 180.881C296.387 180.45 296.093 179.965 295.751 179.399C295.314 178.681 294.849 177.928 294.377 177.158C293.647 175.972 292.898 174.754 292.205 173.604C288.177 174.689 282.632 173.866 280.729 173.529C279.329 175.558 277.716 177.57 276.164 179.516C275.691 180.106 275.205 180.713 274.729 181.312C275.06 182.826 275.877 184.747 276.928 186.475L276.805 186.543L276.81 186.55L276.934 186.484C277.829 187.957 278.791 189.111 279.585 189.669ZM292.003 154.879C293.266 156.013 294.428 157.451 295.466 159.156C296.44 160.766 297.241 162.464 297.859 164.225C300.313 164.475 303.951 165.976 305.234 166.919C306.399 164.182 306.356 161.256 306.176 159.539C305.982 159.173 305.773 158.812 305.556 158.454C303.896 155.723 301.691 153.323 299.064 151.389C298.787 151.287 298.512 151.186 298.24 151.09C296.746 150.571 295.203 150.189 293.632 149.951C293.8 151.201 293.264 152.818 292.003 154.879ZM297.249 181.235C295.977 185.052 292.237 189.013 291.184 190.066C291.573 190.787 292.277 192.17 292.599 193.338C293.811 192.891 294.986 192.358 296.114 191.744C301.447 188.841 305.501 184.217 307.536 178.717C306.654 178.594 305.748 178.44 304.83 178.247C302.743 180.236 299.269 180.971 297.249 181.235ZM259.055 162.302C259.076 162.255 259.088 162.212 259.106 162.169C259.09 162.212 259.074 162.253 259.055 162.302ZM264.96 177.026C264.313 175.144 264.44 168.964 264.913 167.044C263.028 164.948 261.754 162.833 261.201 160.881C260.796 161.148 260.386 161.421 260.017 161.664C259.647 161.907 259.326 162.123 259.055 162.302C256.815 168.12 257.001 174.527 259.578 180.218C260.132 180.517 260.654 180.866 261.136 181.262C261.925 180.189 263.465 178.342 264.96 177.026ZM279.003 190.061C278.164 189.413 277.227 188.269 276.333 186.805C275.252 185.032 274.412 183.056 274.061 181.491C272.497 181.051 267.341 179.029 265.406 177.532C263.885 178.879 262.247 180.86 261.523 181.896C261.75 182.719 261.909 183.58 262.076 184.489V184.502C265.173 188.745 269.613 191.945 274.755 193.64C276.397 192.628 278.077 191.13 279.003 190.061ZM276.508 149.179C278.275 147.796 280.491 146.817 283.11 146.26C278.643 146.279 274.259 147.403 270.391 149.521C269.454 150.031 268.552 150.598 267.691 151.218C269.63 150.28 273.004 148.991 276.508 149.179ZM296.988 150.014C294.553 148.563 291.881 147.508 289.08 146.892C290.608 147.468 292.034 148.263 293.307 149.25C294.553 149.409 295.786 149.665 296.988 150.014ZM265.342 166.519C268.221 165.058 271.495 164.232 274.61 164.178C275.211 162.416 277.114 157.412 280.058 154.776C279.984 154.627 279.885 154.458 279.766 154.264C278.939 152.906 277.281 150.728 276.542 149.835C272.348 149.583 268.194 151.653 267.012 152.298C266.898 152.359 266.809 152.412 266.735 152.453C264.634 154.514 262.629 158.031 261.775 160.345C262.029 161.404 262.504 162.525 263.203 163.672C263.827 164.679 264.542 165.631 265.342 166.519Z" fill="white"/>
<ellipse cx="370.8" cy="166.86" rx="35.02" ry="35.02" fill="#444444"/>
<path d="M407.149 163.248C408.351 166.357 407.374 175.04 406.304 178.238C407.623 178.509 408.908 178.727 410.161 178.891C412.971 170.665 412.55 161.754 408.976 153.798C409.006 156.446 408.678 159.971 407.149 163.248ZM394.549 158.712C394.414 158.329 394.198 157.716 393.879 156.942C393.099 155.027 392.166 153.17 391.087 151.39C389.53 148.839 387.791 146.716 385.906 145.077C381.753 144.564 376.565 144.524 370.061 144.967C366.026 148.423 363.292 155.215 362.3 157.994C362.201 158.274 362.111 158.526 362.036 158.752C362.367 159.312 362.712 159.888 363.057 160.458C364.621 163.021 366.119 165.224 367.566 167.354C368.45 168.652 369.292 169.876 370.117 171.154C370.39 171.204 370.869 171.29 371.507 171.386C373.026 171.624 374.556 171.798 376.044 171.921C379.165 172.166 383.596 172.252 387.058 171.266C389.654 167.597 392.572 163.328 394.593 158.849C394.581 158.81 394.563 158.764 394.549 158.717V158.712ZM368.466 196.009C373.515 196.37 378.984 196.626 384.791 196.04C384.996 195.837 385.331 195.496 385.748 195.045C386.444 194.311 387.501 193.138 388.63 191.726C390.406 189.5 392.71 186.202 393.715 183.02C393.333 182.382 392.897 181.664 392.391 180.828C391.744 179.767 391.057 178.654 390.358 177.515C389.277 175.761 388.169 173.962 387.143 172.261C381.182 173.865 372.975 172.648 370.158 172.151C368.086 175.151 365.7 178.124 363.403 181.001C362.702 181.874 361.983 182.771 361.279 183.656C361.768 185.895 362.978 188.733 364.533 191.289L364.351 191.389L364.359 191.399L364.541 191.301C365.867 193.479 367.29 195.185 368.466 196.009ZM386.843 144.582C388.713 146.258 390.434 148.383 391.969 150.904C393.41 153.284 394.597 155.794 395.512 158.397C399.143 158.767 404.527 160.985 406.426 162.379C408.151 158.334 408.087 154.008 407.82 151.47C407.533 150.929 407.224 150.395 406.903 149.866C404.446 145.828 401.183 142.281 397.295 139.422C396.885 139.271 396.477 139.121 396.075 138.98C393.864 138.213 391.581 137.649 389.256 137.296C389.503 139.145 388.71 141.534 386.843 144.582ZM394.608 183.543C392.725 189.185 387.191 195.04 385.632 196.597C386.208 197.662 387.25 199.706 387.726 201.434C389.52 200.772 391.259 199.984 392.929 199.077C400.822 194.786 406.821 187.951 409.833 179.82C408.528 179.638 407.187 179.41 405.828 179.124C402.74 182.065 397.598 183.152 394.608 183.543ZM338.081 155.555C338.113 155.485 338.13 155.422 338.157 155.358C338.133 155.422 338.109 155.482 338.081 155.555ZM346.821 177.32C345.864 174.538 346.051 165.403 346.751 162.564C343.961 159.466 342.076 156.339 341.258 153.454C340.657 153.849 340.052 154.252 339.505 154.611C338.958 154.971 338.482 155.289 338.081 155.555C334.766 164.155 335.042 173.627 338.855 182.039C339.675 182.48 340.448 182.997 341.161 183.582C342.328 181.996 344.607 179.266 346.821 177.32ZM367.605 196.589C366.362 195.632 364.975 193.94 363.653 191.776C362.053 189.155 360.81 186.234 360.29 183.921C357.976 183.271 350.344 180.28 347.48 178.068C345.23 180.059 342.805 182.987 341.733 184.52C342.07 185.737 342.305 187.009 342.552 188.353V188.372C347.135 194.644 353.707 199.375 361.317 201.88C363.748 200.384 366.234 198.17 367.605 196.589ZM363.912 136.154C366.527 134.111 369.806 132.663 373.683 131.84C367.072 131.868 360.583 133.53 354.859 136.661C353.471 137.415 352.136 138.253 350.862 139.169C353.732 137.783 358.726 135.877 363.912 136.154ZM394.221 137.389C390.619 135.245 386.663 133.685 382.518 132.775C384.78 133.626 386.89 134.801 388.774 136.261C390.618 136.496 392.442 136.873 394.221 137.389ZM347.386 161.788C351.646 159.628 356.493 158.408 361.102 158.328C361.993 155.723 364.808 148.325 369.166 144.429C369.056 144.208 368.91 143.959 368.734 143.671C367.51 141.665 365.056 138.445 363.962 137.125C357.755 136.752 351.606 139.812 349.858 140.765C349.689 140.856 349.557 140.935 349.448 140.994C346.338 144.041 343.371 149.241 342.107 152.662C342.483 154.226 343.185 155.884 344.22 157.579C345.143 159.068 346.202 160.476 347.386 161.788Z" fill="white"/>
</svg>
